<svg width="220" height="105" viewBox="0 0 220 105" fill="none" xmlns="http://www.w3.org/2000/svg">
<path d="M144.457 54.9767C144.026 56.6808 142.806 58.5607 140.797 60.6096C137.428 64.0842 133.006 65.8215 127.522 65.8215C122.774 65.8215 118.716 64.061 115.348 60.5433C112.261 57.3505 110.719 53.2593 110.719 48.2729C110.719 46.9566 110.815 45.6835 111.011 44.4535C111.207 43.2234 111.744 41.3999 112.629 38.983L121.564 41.2176C120.745 43.419 120.268 44.9077 120.138 45.6868C120.009 46.4858 119.943 47.3478 119.943 48.2762C119.943 51.1241 120.699 53.3256 122.211 54.8806C123.57 56.3062 125.34 57.019 127.522 57.019C129.833 57.019 131.656 56.3294 132.992 54.9469C134.504 53.3919 135.26 51.1705 135.26 48.2762V13.0164H145.459V46.1709H147.66V54.9767H144.454H144.457Z" fill="#379777"/>
<path d="M146.045 54.9768V46.1709H150.352C151.649 46.1709 152.663 45.793 153.396 45.0371C154.301 44.1087 154.755 42.6963 154.755 40.7966V25.3201H164.987V41.4133C165.073 42.9682 165.514 44.1651 166.313 45.0072C167.069 45.783 168.05 46.1742 169.26 46.1742H173.696V54.9801H169.26C164.834 54.9801 161.704 54.0087 159.871 52.0658C158.014 54.0087 154.841 54.9801 150.352 54.9801H146.045V54.9768ZM149.736 62.8443C149.736 62.2409 149.855 61.6673 150.09 61.1269C150.329 60.5865 150.651 60.1124 151.062 59.7013C151.473 59.2902 151.94 58.9719 152.471 58.7464C152.998 58.521 153.555 58.4049 154.138 58.4049C154.722 58.4049 155.282 58.5177 155.823 58.7464C156.363 58.9719 156.837 59.2902 157.248 59.7013C157.659 60.1124 157.978 60.5865 158.203 61.1269C158.429 61.6673 158.545 62.2376 158.545 62.8443C158.545 63.451 158.432 64.0478 158.203 64.575C157.978 65.1021 157.659 65.563 157.248 65.9509C156.837 66.3388 156.363 66.6471 155.823 66.8726C155.282 67.098 154.722 67.2141 154.138 67.2141C153.555 67.2141 153.001 67.1014 152.471 66.8726C151.94 66.6471 151.473 66.3388 151.062 65.9509C150.651 65.563 150.329 65.1021 150.09 64.575C149.852 64.0445 149.736 63.4676 149.736 62.8443ZM160.096 62.8443C160.096 62.2409 160.216 61.6673 160.451 61.1269C160.69 60.5865 161.011 60.1124 161.422 59.7013C161.834 59.2902 162.301 58.9719 162.832 58.7464C163.359 58.521 163.916 58.4049 164.499 58.4049C165.083 58.4049 165.643 58.5177 166.183 58.7464C166.724 58.9719 167.198 59.2902 167.609 59.7013C168.02 60.1124 168.338 60.5865 168.564 61.1269C168.789 61.6673 168.905 62.2376 168.905 62.8443C168.905 63.451 168.793 64.0478 168.564 64.575C168.338 65.1021 168.02 65.563 167.609 65.9509C167.198 66.3388 166.724 66.6471 166.183 66.8726C165.643 67.098 165.083 67.2141 164.499 67.2141C163.916 67.2141 163.362 67.1014 162.832 66.8726C162.301 66.6471 161.834 66.3388 161.422 65.9509C161.011 65.563 160.69 65.1021 160.451 64.575C160.212 64.0445 160.096 63.4676 160.096 62.8443Z" fill="#379777"/>
<path d="M187.943 13.0164V42.5769C187.943 45.8791 186.746 48.7171 184.349 51.091C181.779 53.6804 178.616 54.9767 174.863 54.9767H172.078V46.1709H174.863C175.49 46.1709 176.083 45.889 176.644 45.3287C177.376 44.6159 177.744 43.6975 177.744 42.5769V13.0164H187.943Z" fill="#379777"/>
<path d="M197.72 19.4915C206.549 19.4915 212.464 22.3394 215.464 28.0387C217.125 31.2116 218.379 36.6522 219.221 44.3573C219.503 46.9467 219.738 48.7835 219.934 49.861C219.977 50.0566 220 50.292 220 50.5738C220 51.7408 219.546 52.7322 218.641 53.5511C217.779 54.37 216.708 54.8342 215.435 54.9436C215.176 54.9668 214.917 54.9767 214.659 54.9767H200.671C198.317 54.9767 196.159 54.5557 194.196 53.7135L191.669 52.6128L195.426 43.1903C197.067 44.7021 198.188 45.5874 198.794 45.846C199.292 46.0615 199.915 46.1709 200.671 46.1709L209.185 46.204L209.056 45.2326C208.409 39.2979 207.61 35.2166 206.659 32.9953C205.319 29.8655 202.342 28.3006 197.723 28.3006V19.4948L197.72 19.4915Z" fill="#379777"/>
<path d="M111.402 73.5829H116.296C117.526 73.5829 118.448 73.6492 119.061 73.7851C119.674 73.9178 120.255 74.1896 120.798 74.6008C122.483 75.8739 123.321 77.8963 123.321 80.6647C123.321 82.3025 123.01 83.7414 122.383 84.9814C121.756 86.2214 120.904 87.0867 119.827 87.5774C119.426 87.7498 118.968 87.8725 118.454 87.9521C117.94 88.0316 117.281 88.0681 116.478 88.0681H111.406V73.5796L111.402 73.5829ZM113.412 75.3932V86.2513H116.339C117.685 86.2513 118.673 86.0357 119.3 85.6047C120.589 84.7195 121.233 83.0618 121.233 80.6349C121.233 79.4281 121.027 78.4036 120.619 77.5648C120.211 76.726 119.625 76.1292 118.865 75.7777C118.345 75.5258 117.48 75.3965 116.273 75.3965H113.415L113.412 75.3932Z" fill="#379777"/>
<path d="M136.195 73.583H138.317L143.533 88.0715H141.344L139.892 83.7614H134.319L132.754 88.0715H130.609L136.195 73.583ZM137.187 75.7513L134.952 82.107H139.285L137.187 75.7513Z" fill="#379777"/>
<path d="M151.848 73.583H153.857V86.2513H161.184V88.0715H151.844V73.583H151.848Z" fill="#379777"/>
<path d="M169.313 73.583H179.757V75.3933H171.323V79.6602H179.121V81.4804H171.323V86.2513H179.857V88.0715H169.313V73.583Z" fill="#379777"/>
<path d="M188.987 73.583H199.431V75.3933H190.996V79.6602H198.794V81.4804H190.996V86.2513H199.53V88.0715H188.987V73.583Z" fill="#379777"/>
<path d="M208.664 73.583H210.674V86.2513H218.001V88.0715H208.661V73.583H208.664Z" fill="#379777"/>
<g opacity="0.88">
<path d="M82.7638 16.0999C82.5052 17.1708 82.1969 18.2218 81.8322 19.2529C77.1972 20.8741 72.9534 23.5331 69.3794 27.1072C65.8053 30.6812 63.1496 34.925 61.5251 39.56C58.0405 40.7801 54.3405 41.4167 50.541 41.4167C46.7415 41.4167 43.0381 40.7834 39.5569 39.56C37.9356 34.925 35.2766 30.6812 31.7026 27.1072C28.1285 23.5331 23.8848 20.8775 19.2498 19.2529C18.8884 18.2185 18.5767 17.1675 18.3181 16.0999C17.3566 12.1081 20.3803 8.2688 24.4848 8.2688H24.4882C27.4223 8.2688 29.9587 10.2813 30.6549 13.1326C32.8431 22.0777 40.9262 28.7351 50.5377 28.7351C60.1491 28.7351 68.2322 22.0777 70.4204 13.1326C71.1167 10.2846 73.653 8.2688 76.5872 8.2688H76.5905C80.695 8.2688 83.7187 12.1081 82.7572 16.0999H82.7638Z" fill="#379777"/>
</g>
<path d="M50.5438 18.2615C55.5866 18.2615 59.6746 14.1735 59.6746 9.13075C59.6746 4.08798 55.5866 0 50.5438 0C45.5011 0 41.4131 4.08798 41.4131 9.13075C41.4131 14.1735 45.5011 18.2615 50.5438 18.2615Z" fill="#379777"/>
<path d="M39.5601 39.5601C34.9251 37.9388 30.6813 35.2798 27.1072 31.7058C23.5332 28.1317 20.8775 23.8879 19.2529 19.2529C23.8879 20.8742 28.1317 23.5332 31.7058 27.1072C35.2798 30.6813 37.9355 34.9251 39.5601 39.5601Z" fill="#379777"/>
<path opacity="0.88" d="M41.4131 50.544C41.4131 54.3435 40.7765 58.0469 39.5565 61.5314C34.9248 63.1526 30.6777 65.8116 27.1069 69.3824C23.5329 72.9564 20.8772 77.2002 19.2526 81.8352C18.2182 82.1966 17.1672 82.5082 16.0996 82.7668C12.1078 83.7283 8.26855 80.7046 8.26855 76.6001C8.26855 73.6626 10.281 71.1263 13.1323 70.43C22.0774 68.2418 28.7348 60.1588 28.7348 50.5473C28.7348 40.9358 22.0774 32.8527 13.1323 30.6646C10.2843 29.9683 8.26855 27.432 8.26855 24.4978C8.26855 20.3867 12.1078 17.363 16.0996 18.3278C17.1705 18.5864 18.2215 18.8947 19.2526 19.2594C20.8739 23.8944 23.5329 28.1382 27.1069 31.7122C30.681 35.2863 34.9248 37.942 39.5598 39.5665C40.7799 43.0511 41.4164 46.7511 41.4164 50.5506L41.4131 50.544Z" fill="#379777"/>
<path d="M9.13075 59.6748C14.1735 59.6748 18.2615 55.5868 18.2615 50.5441C18.2615 45.5013 14.1735 41.4133 9.13075 41.4133C4.08798 41.4133 0 45.5013 0 50.5441C0 55.5868 4.08798 59.6748 9.13075 59.6748Z" fill="#379777"/>
<path d="M39.5568 61.5315C37.9355 66.1632 35.2765 70.4103 31.7058 73.981C28.1317 77.5551 23.8879 80.2107 19.2529 81.8353C20.8742 77.2003 23.5332 72.9565 27.1072 69.3825C30.678 65.8117 34.9251 63.1527 39.5568 61.5315Z" fill="#379777"/>
<path opacity="0.88" d="M76.5968 92.8194H76.5935C73.6593 92.8194 71.123 90.8069 70.4268 87.9589C68.2386 79.0105 60.1555 72.3531 50.544 72.3531C40.9325 72.3531 32.8494 79.0105 30.6613 87.9589C29.965 90.8069 27.4287 92.8194 24.4945 92.8194H24.4912C20.3867 92.8194 17.363 88.9801 18.3245 84.9883C18.5831 83.9174 18.8914 82.8664 19.2561 81.8353C23.8911 80.214 28.1349 77.555 31.7089 73.981C35.2797 70.4102 37.9387 66.1632 39.5599 61.5315C43.0445 60.3114 46.7478 59.6748 50.5473 59.6748C54.3468 59.6748 58.0502 60.3114 61.5347 61.5315C63.156 66.1632 65.815 70.4102 69.3857 73.981C72.9598 77.555 77.2035 80.2107 81.8385 81.8353C82.1999 82.8697 82.5116 83.9207 82.7702 84.9883C83.7317 88.9801 80.708 92.8194 76.6034 92.8194H76.5968Z" fill="#379777"/>
<path d="M56.9996 98.413C60.5654 94.8472 60.5654 89.0659 56.9996 85.5001C53.4338 81.9343 47.6526 81.9343 44.0868 85.5001C40.521 89.0659 40.521 94.8472 44.0868 98.413C47.6526 101.979 53.4338 101.979 56.9996 98.413Z" fill="#379777"/>
<path d="M81.832 19.2529C80.2108 23.8879 77.5518 28.1317 73.9777 31.7058C70.4037 35.2798 66.1599 37.9355 61.5249 39.5601C63.1462 34.9251 65.8051 30.6813 69.3792 27.1072C72.9533 23.5332 77.197 20.8775 81.832 19.2529Z" fill="#379777"/>
<path d="M81.8321 81.8319C77.1971 80.2106 72.9534 77.5516 69.3793 73.9776C65.8086 70.4068 63.1496 66.1598 61.5283 61.5281C66.16 63.1493 70.4071 65.8083 73.9778 69.3791C77.5519 72.9531 80.2076 77.1969 81.8321 81.8319Z" fill="#379777"/>
<path opacity="0.88" d="M72.3531 50.5441C72.3531 60.1555 79.0105 68.2386 87.9556 70.4268C90.8036 71.123 92.8194 73.6594 92.8194 76.5935C92.8194 80.7047 88.9801 83.7284 84.9883 82.7636C83.9174 82.505 82.8664 82.1966 81.8353 81.832C80.214 77.197 77.555 72.9532 73.981 69.3791C70.4102 65.8084 66.1631 63.1494 61.5315 61.5281C60.3114 58.0436 59.6748 54.3402 59.6748 50.5407C59.6748 46.7412 60.3081 43.0379 61.5315 39.5566C66.1665 37.9354 70.4102 35.2764 73.9843 31.7024C77.5583 28.1283 80.214 23.8845 81.8386 19.2495C82.873 18.8881 83.924 18.5765 84.9916 18.3179C88.9834 17.3564 92.8227 20.3801 92.8227 24.4846C92.8227 27.4221 90.8102 29.9584 87.9589 30.6547C79.0138 32.8429 72.3564 40.9259 72.3564 50.5374L72.3531 50.5441Z" fill="#379777"/>
<path d="M91.9574 59.6748C97.0002 59.6748 101.088 55.5868 101.088 50.5441C101.088 45.5013 97.0002 41.4133 91.9574 41.4133C86.9146 41.4133 82.8267 45.5013 82.8267 50.5441C82.8267 55.5868 86.9146 59.6748 91.9574 59.6748Z" fill="#379777"/>
</svg>
