<svg width="110" height="76" viewBox="0 0 110 76" fill="none" xmlns="http://www.w3.org/2000/svg">
<path d="M33.738 41.9603C33.307 43.6645 32.0869 45.5443 30.0778 47.5933C26.7093 51.0679 22.2865 52.8052 16.8027 52.8052C12.055 52.8052 7.99685 51.0447 4.62836 47.527C1.54167 44.3342 0 40.2429 0 35.2565C0 33.9403 0.0961497 32.6671 0.291761 31.4371C0.487373 30.2071 1.02446 28.3836 1.90968 25.9666L10.8448 28.2012C10.0259 30.4027 9.54849 31.8913 9.41918 32.6704C9.28988 33.4695 9.22356 34.3315 9.22356 35.2598C9.22356 38.1078 9.9795 40.3092 11.4913 41.8642C12.8507 43.2898 14.6211 44.0027 16.8027 44.0027C19.1136 44.0027 20.9371 43.313 22.2732 41.9305C23.785 40.3756 24.5409 38.1542 24.5409 35.2598V0H34.7393V33.1545H36.9407V41.9603H33.7347H33.738Z" fill="#379777"/>
<path d="M35.3262 41.9604V33.1546H39.6329C40.9293 33.1546 41.9438 32.7766 42.6765 32.0207C43.5816 31.0924 44.0358 29.68 44.0358 27.7802V12.3037H54.2673V28.3969C54.3535 29.9519 54.7945 31.1487 55.5935 31.9908C56.3494 32.7667 57.3308 33.1579 58.5409 33.1579H62.977V41.9637H58.5409C54.1148 41.9637 50.985 40.9923 49.1516 39.0494C47.295 40.9923 44.1221 41.9637 39.6329 41.9637H35.3262V41.9604ZM39.0163 49.828C39.0163 49.2245 39.1356 48.651 39.371 48.1106C39.6097 47.5701 39.9313 47.096 40.3424 46.6849C40.7536 46.2738 41.221 45.9555 41.7515 45.7301C42.2787 45.5046 42.8357 45.3886 43.4192 45.3886C44.0027 45.3886 44.563 45.5013 45.1034 45.7301C45.6438 45.9555 46.118 46.2738 46.5291 46.6849C46.9402 47.096 47.2585 47.5701 47.4839 48.1106C47.7094 48.651 47.8254 49.2212 47.8254 49.828C47.8254 50.4347 47.7127 51.0315 47.4839 51.5586C47.2585 52.0858 46.9402 52.5466 46.5291 52.9345C46.118 53.3224 45.6438 53.6308 45.1034 53.8562C44.563 54.0817 44.0027 54.1977 43.4192 54.1977C42.8357 54.1977 42.282 54.085 41.7515 53.8562C41.221 53.6308 40.7536 53.3224 40.3424 52.9345C39.9313 52.5466 39.6097 52.0858 39.371 51.5586C39.1323 51.0282 39.0163 50.4513 39.0163 49.828ZM49.3771 49.828C49.3771 49.2245 49.4964 48.651 49.7318 48.1106C49.9705 47.5701 50.2921 47.096 50.7032 46.6849C51.1143 46.2738 51.5818 45.9555 52.1123 45.7301C52.6395 45.5046 53.1964 45.3886 53.78 45.3886C54.3635 45.3886 54.9238 45.5013 55.4642 45.7301C56.0046 45.9555 56.4787 46.2738 56.8899 46.6849C57.301 47.096 57.6193 47.5701 57.8447 48.1106C58.0702 48.651 58.1862 49.2212 58.1862 49.828C58.1862 50.4347 58.0735 51.0315 57.8447 51.5586C57.6193 52.0858 57.301 52.5466 56.8899 52.9345C56.4787 53.3224 56.0046 53.6308 55.4642 53.8562C54.9238 54.0817 54.3635 54.1977 53.78 54.1977C53.1964 54.1977 52.6428 54.085 52.1123 53.8562C51.5818 53.6308 51.1143 53.3224 50.7032 52.9345C50.2921 52.5466 49.9705 52.0858 49.7318 51.5586C49.4931 51.0282 49.3771 50.4513 49.3771 49.828Z" fill="#379777"/>
<path d="M77.2233 0V29.5605C77.2233 32.8627 76.0264 35.7008 73.6294 38.0746C71.0599 40.664 67.897 41.9603 64.1439 41.9603H61.3589V33.1545H64.1439C64.7705 33.1545 65.364 32.8727 65.9243 32.3124C66.657 31.5996 67.025 30.6812 67.025 29.5605V0H77.2233Z" fill="#379777"/>
<path d="M87.0009 6.4751C95.8299 6.4751 101.745 9.32307 104.745 15.0223C106.406 18.1952 107.659 23.6359 108.502 31.341C108.783 33.9303 109.019 35.7671 109.214 36.8446C109.258 37.0402 109.281 37.2756 109.281 37.5575C109.281 38.7245 108.826 39.7158 107.921 40.5347C107.059 41.3536 105.988 41.8178 104.715 41.9272C104.457 41.9504 104.198 41.9604 103.94 41.9604H89.9516C87.5977 41.9604 85.4393 41.5393 83.4766 40.6972L80.9502 39.5964L84.7066 30.1739C86.3478 31.6858 87.4684 32.571 88.0751 32.8296C88.5724 33.0451 89.1957 33.1545 89.9516 33.1545L98.4657 33.1877L98.3364 32.2162C97.6899 26.2816 96.8909 22.2003 95.9394 19.9789C94.5999 16.8491 91.6226 15.2843 87.0042 15.2843V6.47842L87.0009 6.4751Z" fill="#379777"/>
<path d="M0.683105 60.5666H5.57669C6.80673 60.5666 7.72843 60.6329 8.34179 60.7688C8.95515 60.9014 9.53535 61.1733 10.0791 61.5844C11.7633 62.8575 12.6021 64.8799 12.6021 67.6483C12.6021 69.2862 12.2905 70.7251 11.6639 71.9651C11.0373 73.205 10.1852 74.0704 9.10766 74.5611C8.70649 74.7335 8.24895 74.8561 7.73505 74.9357C7.22116 75.0153 6.5614 75.0518 5.75906 75.0518H0.686404V60.5632L0.683105 60.5666ZM2.69227 62.3768V73.2349H5.6198C6.96587 73.2349 7.95389 73.0194 8.58051 72.5884C9.87022 71.7032 10.5134 70.0454 10.5134 67.6185C10.5134 66.4117 10.3079 65.3872 9.90005 64.5484C9.49225 63.7096 8.90541 63.1128 8.14617 62.7614C7.62564 62.5094 6.76033 62.3801 5.5535 62.3801H2.69559L2.69227 62.3768Z" fill="#379777"/>
<path d="M25.4762 60.5667H27.5981L32.8133 75.0552H30.6251L29.1729 70.7451H23.5996L22.0347 75.0552H19.8896L25.4762 60.5667ZM26.4675 62.735L24.2329 69.0907H28.5662L26.4675 62.735Z" fill="#379777"/>
<path d="M41.1283 60.5667H43.1375V73.235H50.4646V75.0552H41.125V60.5667H41.1283Z" fill="#379777"/>
<path d="M58.5942 60.5667H69.0379V62.3769H60.6034V66.6439H68.4013V68.4641H60.6034V73.235H69.1374V75.0552H58.5942V60.5667Z" fill="#379777"/>
<path d="M78.2681 60.5667H88.7117V62.3769H80.2772V66.6439H88.0752V68.4641H80.2772V73.235H88.8112V75.0552H78.2681V60.5667Z" fill="#379777"/>
<path d="M97.9452 60.5667H99.9544V73.235H107.282V75.0552H97.9419V60.5667H97.9452Z" fill="#379777"/>
</svg>
