<svg width="102" height="105" viewBox="0 0 102 105" fill="none" xmlns="http://www.w3.org/2000/svg">
<g opacity="0.88">
<path d="M82.7638 16.0999C82.5052 17.1708 82.1969 18.2218 81.8322 19.2529C77.1972 20.8741 72.9534 23.5331 69.3794 27.1072C65.8053 30.6812 63.1496 34.925 61.5251 39.56C58.0405 40.7801 54.3405 41.4167 50.541 41.4167C46.7415 41.4167 43.0381 40.7834 39.5569 39.56C37.9356 34.925 35.2766 30.6812 31.7026 27.1072C28.1285 23.5331 23.8848 20.8775 19.2498 19.2529C18.8884 18.2185 18.5767 17.1675 18.3181 16.0999C17.3566 12.1081 20.3803 8.2688 24.4848 8.2688H24.4882C27.4223 8.2688 29.9587 10.2813 30.6549 13.1326C32.8431 22.0777 40.9262 28.7351 50.5377 28.7351C60.1491 28.7351 68.2322 22.0777 70.4204 13.1326C71.1167 10.2846 73.653 8.2688 76.5872 8.2688H76.5905C80.695 8.2688 83.7187 12.1081 82.7572 16.0999H82.7638Z" fill="#379777"/>
</g>
<path d="M50.5438 18.2615C55.5866 18.2615 59.6746 14.1735 59.6746 9.13075C59.6746 4.08798 55.5866 0 50.5438 0C45.5011 0 41.4131 4.08798 41.4131 9.13075C41.4131 14.1735 45.5011 18.2615 50.5438 18.2615Z" fill="#379777"/>
<path d="M39.5601 39.5601C34.9251 37.9388 30.6813 35.2798 27.1072 31.7058C23.5332 28.1317 20.8775 23.8879 19.2529 19.2529C23.8879 20.8742 28.1317 23.5332 31.7058 27.1072C35.2798 30.6813 37.9355 34.9251 39.5601 39.5601Z" fill="#379777"/>
<path opacity="0.88" d="M41.4131 50.544C41.4131 54.3435 40.7765 58.0469 39.5565 61.5314C34.9248 63.1526 30.6777 65.8116 27.1069 69.3824C23.5329 72.9564 20.8772 77.2002 19.2526 81.8352C18.2182 82.1966 17.1672 82.5082 16.0996 82.7668C12.1078 83.7283 8.26855 80.7046 8.26855 76.6001C8.26855 73.6626 10.281 71.1263 13.1323 70.43C22.0774 68.2418 28.7348 60.1588 28.7348 50.5473C28.7348 40.9358 22.0774 32.8527 13.1323 30.6646C10.2843 29.9683 8.26855 27.432 8.26855 24.4978C8.26855 20.3867 12.1078 17.363 16.0996 18.3278C17.1705 18.5864 18.2215 18.8947 19.2526 19.2594C20.8739 23.8944 23.5329 28.1382 27.1069 31.7122C30.681 35.2863 34.9248 37.942 39.5598 39.5665C40.7799 43.0511 41.4164 46.7511 41.4164 50.5506L41.4131 50.544Z" fill="#379777"/>
<path d="M9.13075 59.6748C14.1735 59.6748 18.2615 55.5868 18.2615 50.5441C18.2615 45.5013 14.1735 41.4133 9.13075 41.4133C4.08798 41.4133 0 45.5013 0 50.5441C0 55.5868 4.08798 59.6748 9.13075 59.6748Z" fill="#379777"/>
<path d="M39.5568 61.5315C37.9355 66.1632 35.2765 70.4103 31.7058 73.981C28.1317 77.5551 23.8879 80.2107 19.2529 81.8353C20.8742 77.2003 23.5332 72.9565 27.1072 69.3825C30.678 65.8117 34.9251 63.1527 39.5568 61.5315Z" fill="#379777"/>
<path opacity="0.88" d="M76.5968 92.8194H76.5935C73.6593 92.8194 71.123 90.8069 70.4268 87.9589C68.2386 79.0105 60.1555 72.3531 50.544 72.3531C40.9325 72.3531 32.8494 79.0105 30.6613 87.9589C29.965 90.8069 27.4287 92.8194 24.4945 92.8194H24.4912C20.3867 92.8194 17.363 88.9801 18.3245 84.9883C18.5831 83.9174 18.8914 82.8664 19.2561 81.8353C23.8911 80.214 28.1349 77.555 31.7089 73.981C35.2797 70.4102 37.9387 66.1632 39.5599 61.5315C43.0445 60.3114 46.7478 59.6748 50.5473 59.6748C54.3468 59.6748 58.0502 60.3114 61.5347 61.5315C63.156 66.1632 65.815 70.4102 69.3857 73.981C72.9598 77.555 77.2035 80.2107 81.8385 81.8353C82.1999 82.8697 82.5116 83.9207 82.7702 84.9883C83.7317 88.9801 80.708 92.8194 76.6034 92.8194H76.5968Z" fill="#379777"/>
<path d="M56.9996 98.413C60.5654 94.8472 60.5654 89.0659 56.9996 85.5001C53.4338 81.9343 47.6526 81.9343 44.0868 85.5001C40.521 89.0659 40.521 94.8472 44.0868 98.413C47.6526 101.979 53.4338 101.979 56.9996 98.413Z" fill="#379777"/>
<path d="M81.832 19.2529C80.2108 23.8879 77.5518 28.1317 73.9777 31.7058C70.4037 35.2798 66.1599 37.9355 61.5249 39.5601C63.1462 34.9251 65.8051 30.6813 69.3792 27.1072C72.9533 23.5332 77.197 20.8775 81.832 19.2529Z" fill="#379777"/>
<path d="M81.8321 81.8319C77.1971 80.2106 72.9534 77.5516 69.3793 73.9776C65.8086 70.4068 63.1496 66.1598 61.5283 61.5281C66.16 63.1493 70.4071 65.8083 73.9778 69.3791C77.5519 72.9531 80.2076 77.1969 81.8321 81.8319Z" fill="#379777"/>
<path opacity="0.88" d="M72.3531 50.5441C72.3531 60.1555 79.0105 68.2386 87.9556 70.4268C90.8036 71.123 92.8194 73.6594 92.8194 76.5935C92.8194 80.7047 88.9801 83.7284 84.9883 82.7636C83.9174 82.505 82.8664 82.1966 81.8353 81.832C80.214 77.197 77.555 72.9532 73.981 69.3791C70.4102 65.8084 66.1631 63.1494 61.5315 61.5281C60.3114 58.0436 59.6748 54.3402 59.6748 50.5407C59.6748 46.7412 60.3081 43.0379 61.5315 39.5566C66.1665 37.9354 70.4102 35.2764 73.9843 31.7024C77.5583 28.1283 80.214 23.8845 81.8386 19.2495C82.873 18.8881 83.924 18.5765 84.9916 18.3179C88.9834 17.3564 92.8227 20.3801 92.8227 24.4846C92.8227 27.4221 90.8102 29.9584 87.9589 30.6547C79.0138 32.8429 72.3564 40.9259 72.3564 50.5374L72.3531 50.5441Z" fill="#379777"/>
<path d="M91.9574 59.6748C97.0002 59.6748 101.088 55.5868 101.088 50.5441C101.088 45.5013 97.0002 41.4133 91.9574 41.4133C86.9146 41.4133 82.8267 45.5013 82.8267 50.5441C82.8267 55.5868 86.9146 59.6748 91.9574 59.6748Z" fill="#379777"/>
</svg>
