<svg width="400" height="400" viewBox="0 0 400 400" fill="none" xmlns="http://www.w3.org/2000/svg">
<path d="M298.745 99.5185C297.114 94.9948 295.299 90.5025 293.311 86.1356C289.352 77.445 288.443 69.2091 282.88 61.9414" stroke="#CCDDE2" stroke-width="4"/>
<path d="M269.988 53.6115C265.201 48.7428 260.725 43.5096 252.591 39.6014C235.402 31.3694 213.422 30.5344 185.367 42.1768" stroke="#CCDDE2" stroke-width="4"/>
<path d="M67.4177 372.668C40.2325 334.24 31.4399 290.795 35.9832 246.362" stroke="#CCDDE2" stroke-width="4"/>
<path d="M314.041 183.493V183.967C313.774 192.591 321.743 228.342 344.346 239.698C366.949 251.054 383.064 300.901 332.104 320.458C281.144 340.015 283.919 372.668 283.919 372.668" stroke="#CCDDE2" stroke-width="4"/>
<path d="M185.363 79.0877V36.8536C185.348 30.8131 180.455 25.9201 174.414 25.905H34.5487C28.5082 25.9201 23.6152 30.8131 23.6001 36.8536V235.441C23.6109 241.479 28.5102 246.368 34.5487 246.366H174.414C175.771 246.374 177.116 246.116 178.373 245.605" stroke="black" stroke-width="4" stroke-linecap="round" stroke-linejoin="round"/>
<rect x="28.5117" y="32.5964" width="151.939" height="207.098" rx="24.95" fill="#73CBAE"/>
<rect x="37.4575" y="48.6213" width="135.71" height="38.7766" rx="12.48" fill="#73CBAE"/>
<circle cx="104.481" cy="60.942" r="4.01016" fill="#D7E8F0"/>
<path d="M93.2739 79.0877C93.2739 72.898 98.2916 67.8804 104.481 67.8804C110.671 67.8804 115.688 72.898 115.688 79.0877H93.2739Z" fill="#D7E8F0"/>
<path fill-rule="evenodd" clip-rule="evenodd" d="M105.297 128.946C96.5537 128.942 88.6692 134.205 85.3213 142.282C81.9733 150.358 83.8215 159.656 90.0037 165.839C96.1859 172.021 105.484 173.869 113.561 170.521C121.637 167.173 126.901 159.288 126.896 150.546C126.889 138.619 117.223 128.953 105.297 128.946ZM105.297 166.935C103.555 166.935 102.143 165.523 102.143 163.781C102.143 162.04 103.555 160.628 105.297 160.628C107.038 160.628 108.45 162.04 108.45 163.781C108.45 165.523 107.038 166.935 105.297 166.935ZM109.014 144.635C109.109 143.963 109.203 143.295 109.299 142.631V142.647C109.343 142.295 109.404 141.927 109.466 141.551C109.813 139.436 110.203 137.059 108.037 135.814C105.983 134.65 102.427 134.924 101.177 137.147C100.053 139.101 100.723 142.059 101.272 144.482C101.426 145.161 101.57 145.798 101.663 146.359C102.186 149.885 102.943 153.372 103.929 156.798C104.281 157.88 106.335 157.88 106.673 156.798C107.853 152.892 108.442 148.703 109.014 144.635Z" fill="#D7E8F0"/>
<path d="M51.0283 104.709H156.551" stroke="white" stroke-width="7.24"/>
<path d="M51.0283 115.093H156.551" stroke="white" stroke-width="7.24"/>
<path d="M51.0283 181.98H156.551" stroke="white" stroke-width="7.24"/>
<path d="M75.54 191.803H132.039" stroke="white" stroke-width="7.24"/>
<path d="M62.2397 256.134C62.2397 256.134 81.0165 181.521 139.499 163.297L163.27 157.625C163.27 157.625 167.029 140.836 165.645 139.072C164.262 137.308 161.42 133.693 156.214 134.477C151.008 135.261 137.551 135.512 134.105 119.06C130.659 102.608 143.392 63.5018 176.48 57.6531C209.569 51.8045 210.341 76.1006 210.341 76.1006L186.037 132.419L189.808 177.852L190.283 245.531L62.2397 256.134Z" fill="white"/>
<mask id="mask0_16_602" style="mask-type:luminance" maskUnits="userSpaceOnUse" x="47" y="55" width="254" height="320">
<path fill-rule="evenodd" clip-rule="evenodd" d="M47.5552 55.5911H300.752V374.095H47.5552L47.5552 55.5911Z" fill="white"/>
</mask>
<g mask="url(#mask0_16_602)">
<path d="M264.335 198.495C263.943 198.608 258.941 200.063 256.973 203.528C256.208 201.909 254.577 200.876 252.787 200.878H194.045C191.893 200.874 190.024 202.359 189.541 204.457L177.973 254.057C177.189 253.904 176.405 253.81 175.59 253.731L148.291 246.918C145.865 246.31 143.373 247.645 142.537 250.003C142.355 250.514 142.265 251.053 142.27 251.595C142.27 254.149 144.246 256.269 146.794 256.448L159.702 257.279C147.268 263.131 132.141 274.28 119.515 284.523C107.229 265.287 118.758 246.056 127.429 235.699C126.312 224.284 120.651 197.781 92.4077 198.502C102.137 186.025 114.27 175.331 129.303 168.173C180.796 225.249 239.706 178.585 240.956 177.581C249.766 183.328 257.649 190.383 264.335 198.502" fill="#2E2E2E"/>
<path d="M258.984 362.225V372.088H88.9307V358.117C95.5555 358.509 102.525 356.941 108.864 354.083C116.888 350.43 123.819 344.754 129.746 338.278C135.841 331.575 139.189 322.28 143.074 314.197C148.907 302.026 156.633 293.355 168.895 289.682L168.111 293.053C167.792 294.428 168.117 295.873 168.994 296.978C169.871 298.084 171.204 298.73 172.615 298.733H231.65C230.474 308.925 225.515 364.589 258.984 362.237" fill="#2E2E2E"/>
<path d="M231.677 102.835C231.63 108.108 230.943 113.356 229.631 118.464C228.409 123.41 224.403 127.181 219.392 128.103C219.294 124.544 217.781 121.419 215.472 119.479C215.683 116.466 215.653 113.44 215.382 110.432C215.229 108.444 214.99 106.59 214.739 104.924C214.59 103.976 214.374 103.039 214.092 102.121C213.304 101.275 212.376 100.57 211.348 100.04C207.714 97.9935 200.235 95.8179 186.378 99.0166C184.115 99.5345 181.987 100.521 180.129 101.914C180.088 101.939 180.051 101.971 180.02 102.008C178.769 103.16 177.178 104.618 175.531 105.375C173.826 106.159 172.046 106.19 170.553 104.336C170.514 104.297 170.494 104.262 170.459 104.222C169.675 103.199 168.926 101.87 167.542 101.608C164.626 101.059 163.207 103.96 162.838 106.398C162.517 108.652 163.179 110.639 164.148 112.533C164.958 114.072 166.018 115.467 167.284 116.661C167.608 116.975 167.906 117.316 168.173 117.68C168.052 117.701 167.932 117.734 167.817 117.778C167.549 117.868 167.287 117.975 167.033 118.099C163.505 119.687 160.992 123.666 160.937 128.323C160.937 128.468 155.022 128.381 154.273 128.323C151.388 128.056 148.546 127.225 146.515 125.049C140.753 118.875 140.78 109.714 143.148 102.549C145.39 95.7474 148.244 89.1069 151.984 82.9878C160.086 69.746 172.658 59.9774 188.573 59.0993C192.39 58.9073 196.216 59.1308 199.984 59.7657C201.767 60.0467 203.531 60.4394 205.264 60.9417C221.489 68.0212 231.787 84.0697 231.693 102.835" fill="#2E2E2E"/>
<path d="M222.281 253.794C220.365 258.714 215.802 261.528 212.089 260.066C208.377 258.604 206.919 253.461 208.832 248.541C210.745 243.622 215.312 240.803 219.024 242.269C222.736 243.735 224.198 248.878 222.281 253.798" fill="#73CBAE"/>
<path d="M232.144 297.729C232.144 297.729 221.732 370.308 263.378 362.264C304.797 354.256 320.473 185.754 200.584 161.521" stroke="black" stroke-width="7.24"/>
<path d="M134.638 227.855C134.638 227.855 101.036 256.193 119.142 284.535" stroke="black" stroke-width="7.24"/>
<path d="M232.901 277.569C232.324 277.604 231.501 277.22 230.941 277.067C230.23 276.879 229.526 276.678 228.828 276.463C224.734 275.189 220.882 273.239 217.432 270.693C216.648 270.133 215.253 269.772 214.296 270.14C213.212 270.538 212.431 271.495 212.258 272.637C211.964 274.66 213.391 276.64 214.947 277.937C216.793 279.482 218.71 280.905 220.949 281.83C223.109 282.697 225.338 283.383 227.613 283.88C228.644 284.119 229.69 284.272 230.713 284.535" stroke="black" stroke-width="7.24"/>
<path d="M245.798 257.933C246.221 260.168 246.531 262.488 246.319 264.758C246.143 266.679 245.453 268.921 243.316 269.388C242.91 269.495 242.489 269.533 242.07 269.501C234.026 269.027 227.397 266.248 219.828 260.775C212.258 255.303 209.592 267.906 216.507 270.14" stroke="black" stroke-width="7.24"/>
<path d="M216.797 279.458C216.612 279.305 216.435 279.141 216.268 278.968C212.501 275.028 211.819 282.943 215.774 285.271L216.284 285.573C216.55 285.687 216.836 285.82 217.119 285.965C217.252 286 217.401 286.059 217.538 286.098C221.113 287.666 224.919 288.67 228.667 289.693C224.959 288.482 221.262 287.29 217.538 286.098C217.217 285.965 216.911 285.832 216.589 285.679C216.491 285.638 216.388 285.606 216.284 285.585C216.148 285.523 215.99 285.538 215.868 285.624C215.779 285.697 215.713 285.796 215.68 285.906C215.072 287.365 215.566 289.203 216.342 290.508C217.158 291.888 218.557 292.951 219.937 293.707C223.649 295.789 227.965 297.02 232.132 297.757C232.905 297.917 233.697 297.968 234.484 297.909" stroke="black" stroke-width="7.24"/>
<path d="M268.098 306.89C268.098 306.89 255.323 285.119 253.9 266.189C253.03 254.472 249.588 251.991 247.126 251.822" stroke="black" stroke-width="7.24"/>
<path d="M243.316 269.384L245.802 257.933L247.127 251.818L256.95 206.479C257.245 205.112 256.906 203.685 256.027 202.596C255.149 201.507 253.825 200.874 252.426 200.874H193.681C191.529 200.872 189.661 202.356 189.177 204.453L177.609 254.056L169.166 290.25L168.382 293.641C168.066 295.015 168.392 296.459 169.27 297.563C170.147 298.668 171.479 299.313 172.89 299.317H231.921" stroke="black" stroke-width="7.24"/>
<path d="M170.482 103.031C170.482 103.031 173.591 89.8477 191.145 88.0994C208.699 86.3511 213.097 99.4674 213.097 99.4674L212.544 100.788C212.544 100.788 189.467 91.5294 176.723 104.744C176.723 104.744 172.133 106.825 170.482 103.039" fill="#73CBAE"/>
<path d="M175.218 253.731L147.915 246.911C146.139 246.471 144.267 247.071 143.078 248.46C141.888 249.85 141.584 251.792 142.292 253.479C143.001 255.166 144.6 256.309 146.426 256.432L159.334 257.283" stroke="black" stroke-width="7.24"/>
<path d="M240.604 177.562C240.604 177.562 180.969 225.872 128.935 168.173" stroke="black" stroke-width="7.24"/>
<path d="M127.064 235.691C125.947 224.276 120.291 197.754 92.0234 198.494" stroke="black" stroke-width="7.24"/>
<path d="M263.978 198.487C263.978 198.487 258.651 199.953 256.609 203.536" stroke="black" stroke-width="7.24"/>
<path d="M47.5591 372.676H300.756" stroke="black" stroke-width="7.24"/>
<path d="M215.472 119.495C217.86 121.502 219.392 124.779 219.392 128.487C219.392 134.642 215.116 139.62 209.831 139.62C209.234 139.617 208.638 139.547 208.056 139.412C214.21 134.708 215.457 119.495 215.457 119.495" fill="#73CBAE"/>
<path d="M180.659 144.336C186.66 147.322 193.654 147.592 199.867 145.077C217.185 137.844 216.523 116.527 214.724 104.94C214.58 104 214.376 103.07 214.112 102.157C212.125 95.5318 206.939 90.134 200.106 88.6013C186.872 85.6103 174.771 93.1132 169.75 103.215" stroke="black" stroke-width="7.24"/>
<path d="M214.277 102.364C214.277 102.364 214.222 102.286 214.108 102.157C212.932 100.832 206.123 94.5086 186.413 99.0519C184.152 99.569 182.024 100.556 180.169 101.949C180.125 101.974 180.085 102.006 180.051 102.043" stroke="black" stroke-width="7.24"/>
<path d="M161.741 134.477H151.992C144.955 134.477 139.377 128.033 136.951 121.984C133.54 113.478 135.724 104.771 138.793 96.504C141.365 89.5852 144.634 82.8624 148.934 76.8452C158.562 63.38 173.097 55.7517 189.804 57.1629C191.286 57.2883 192.761 57.4713 194.23 57.7117C216.664 61.3494 231.791 80.1066 231.677 102.823C231.631 108.1 230.943 113.352 229.631 118.464C228.399 123.406 224.396 127.173 219.388 128.103" stroke="black" stroke-width="7.24"/>
<path d="M168.181 117.68C167.913 117.315 167.615 116.973 167.291 116.657C166.025 115.465 164.965 114.072 164.155 112.533C163.187 110.64 162.525 108.652 162.846 106.398C163.207 103.976 164.626 101.059 167.55 101.608C168.934 101.874 169.671 103.199 170.467 104.222C173.493 108.142 177.66 104.203 180.216 101.835" stroke="black" stroke-width="7.24"/>
<path d="M215.472 119.495C217.86 121.502 219.392 124.779 219.392 128.487C219.392 134.642 215.116 139.62 209.831 139.62C209.234 139.617 208.638 139.547 208.056 139.412" stroke="black" stroke-width="7.24"/>
<path d="M195.014 127.049C197.154 128.487 202.324 129.667 201.286 125.402C200.039 120.349 198.361 109.554 208.636 108.73C208.636 108.73 213.159 108.923 215.394 110.459" stroke="black" stroke-width="7.24"/>
<path d="M198.883 135.496C198.883 135.496 193.708 138.24 191.145 132.772" stroke="black" stroke-width="7.24"/>
<path d="M188.389 116.112C188.189 117.848 188.867 119.35 189.906 119.471C190.945 119.593 191.948 118.295 192.152 116.547C192.356 114.799 191.67 113.313 190.635 113.191C189.6 113.07 188.589 114.367 188.389 116.112Z" fill="black"/>
<path d="M205.237 117.135C205.037 118.867 205.715 120.373 206.754 120.494C207.793 120.616 208.796 119.318 208.996 117.57C209.196 115.822 208.518 114.332 207.483 114.214C206.448 114.097 205.437 115.39 205.237 117.135Z" fill="black"/>
<path d="M195.014 109.84C195.014 109.84 191.846 104.956 184.669 109.589" stroke="black" stroke-width="7.24"/>
<path d="M200.58 144.755V171.85" stroke="black" stroke-width="7.24"/>
<path d="M93.4619 306.89C93.4619 306.89 104.63 296.306 119.134 284.546C131.76 274.304 146.903 263.135 159.341 257.287C160.933 256.546 162.477 255.883 163.979 255.327C167.561 253.961 171.406 253.425 175.225 253.759C176.025 253.825 176.82 253.932 177.609 254.08" stroke="black" stroke-width="7.24"/>
<path d="M169.165 290.25C156.899 293.923 149.173 302.594 143.344 314.766C139.467 322.849 136.112 332.143 130.016 338.846C124.093 345.318 117.162 350.998 109.138 354.652C94.5793 361.277 76.6531 360.767 67.1942 346.361C60.7967 336.592 58.2801 324.456 57.0022 313.041C54.807 293.202 61.7375 237.279 92.0234 198.491C101.753 186.013 113.889 175.32 128.918 168.162C139.467 163.152 151.392 159.875 164.908 158.946L168.695 139.412" stroke="black" stroke-width="7.24"/>
<path d="M259.255 362.884V372.676" stroke="black" stroke-width="7.24"/>
<path d="M89.2009 359.387V372.676" stroke="black" stroke-width="7.24"/>
<path d="M180.032 128.487C180.069 131.426 179.025 134.276 177.099 136.496C176.019 136.995 174.844 137.253 173.654 137.252C168.373 137.252 164.093 132.274 164.093 126.12C164.055 123.181 165.1 120.332 167.029 118.115C168.108 117.613 169.284 117.353 170.475 117.354C175.755 117.354 180.032 122.337 180.032 128.487Z" fill="#73CBAE"/>
<ellipse cx="170.482" cy="128.487" rx="9.54912" ry="11.1328" stroke="black" stroke-width="7.24"/>
</g>
<path fill-rule="evenodd" clip-rule="evenodd" d="M284.013 31.1971C271.983 27.6107 258.976 31.6245 251.059 41.367C243.141 51.1096 241.872 64.6621 247.843 75.7051C253.814 86.7481 265.85 93.1068 278.337 91.8162C290.825 90.5256 301.305 81.8399 304.891 69.8091C309.788 53.3814 300.441 36.0943 284.013 31.1971ZM268.42 83.5056C266.019 82.789 264.653 80.2617 265.37 77.8608C266.086 75.4598 268.614 74.0944 271.015 74.811C273.416 75.5276 274.781 78.0549 274.064 80.4558C273.348 82.8568 270.821 84.2222 268.42 83.5056ZM283.911 52.2357C283.972 52.0868 284.034 51.9339 284.1 51.7771H284.088C284.206 51.4998 284.332 51.2115 284.462 50.9142C285.732 48.0138 287.37 44.2726 285.005 41.8085C282.645 39.3625 277.639 38.2688 274.986 40.8168C272.639 43.0498 272.351 47.4306 272.116 51.0015C272.051 51.9817 271.991 52.9009 271.893 53.6979C271.162 58.7622 270.77 63.8695 270.717 68.9859C270.725 70.6323 273.563 71.479 274.468 70.107C278.204 64.4798 281.368 58.4929 283.911 52.2357Z" fill="#D7E8F0"/>
<path fill-rule="evenodd" clip-rule="evenodd" d="M305.487 209.173C301.083 213.651 299.81 220.341 302.263 226.123C304.715 231.906 310.41 235.641 316.69 235.587C322.971 235.533 328.601 231.701 330.954 225.877C333.307 220.054 331.92 213.386 327.439 208.985C321.324 202.977 311.498 203.061 305.487 209.173ZM324.962 228.314C324.083 229.208 322.645 229.221 321.751 228.342C320.857 227.463 320.845 226.025 321.724 225.131C322.292 224.553 323.126 224.322 323.912 224.525C324.697 224.728 325.314 225.335 325.531 226.116C325.747 226.898 325.53 227.736 324.962 228.314ZM315.347 215.105C315.069 214.743 314.792 214.384 314.519 214.026C314.362 213.826 314.205 213.611 314.043 213.39C313.134 212.143 312.108 210.737 310.403 211.223C308.768 211.693 307.114 213.649 307.62 215.421C308.057 216.981 309.928 218.136 311.452 219.076C311.87 219.333 312.261 219.575 312.59 219.804C314.659 221.314 316.826 222.684 319.078 223.904C319.807 224.288 320.846 223.23 320.454 222.509C319.046 219.91 317.169 217.471 315.347 215.105Z" fill="#73CBAE"/>
<path fill-rule="evenodd" clip-rule="evenodd" d="M366.365 84.8108C370.684 79.4972 369.878 71.6886 364.565 67.3692C359.252 63.0499 351.443 63.8553 347.123 69.1683C342.803 74.4812 343.608 82.29 348.921 86.6101C351.473 88.685 354.744 89.6611 358.016 89.3237C361.287 88.9863 364.291 87.3629 366.365 84.8108ZM349.442 71.0555C349.851 70.5527 350.496 70.3059 351.136 70.4081C351.775 70.5103 352.312 70.9458 352.543 71.5508C352.774 72.1557 352.665 72.8381 352.257 73.3409C351.849 73.8436 351.203 74.0904 350.564 73.9883C349.924 73.8861 349.388 73.4505 349.156 72.8456C348.925 72.2406 349.034 71.5583 349.442 71.0555ZM358.065 80.8248C358.319 81.0973 358.572 81.3687 358.823 81.6395V81.616C358.955 81.758 359.09 81.9114 359.227 82.0684C360.047 83.0071 360.976 84.0697 362.316 83.5525C363.582 83.0742 364.75 81.3925 364.217 80.0245C363.753 78.814 362.181 78.0393 360.901 77.408C360.547 77.2338 360.216 77.0705 359.936 76.912C358.172 75.8634 356.34 74.9336 354.452 74.1288C353.856 73.8779 353.096 74.7952 353.464 75.3401C354.782 77.3051 356.446 79.0887 358.065 80.8248Z" fill="#73CBAE"/>
<path d="M243.12 166.559C247.495 174.007 247.295 179.31 246.158 187.907C245.704 191.18 249.228 193.395 252.085 191.749C277.334 177.245 300.901 188.714 331.007 181.604C342.061 179.009 355.844 173.63 365.291 164.983C368.426 160.328 370.101 154.844 370.101 149.232C370.101 125.712 337.957 106.618 298.314 106.618C272.908 106.618 250.588 114.458 237.828 126.269C237.828 126.269 237.828 126.269 237.793 126.304C234.555 131.153 232.775 136.453 232.775 141.984C232.756 150.424 239.032 159.573 243.12 166.559Z" fill="#D7E8F0"/>
<path fill-rule="evenodd" clip-rule="evenodd" d="M232.869 141.984V142.58C233.01 150.812 237.142 158.483 242.034 165.12C245.311 169.557 249.2 174.489 248.279 179.93C247.887 182.329 246.534 184.504 246.197 186.911C245.86 189.318 247.142 192.321 249.572 192.446C251.117 192.525 252.43 191.427 253.653 190.486C260.885 184.881 270.286 182.783 279.427 182.415C288.568 182.046 297.698 183.254 306.843 183.512C320.03 183.904 333.425 182.242 345.604 177.186C356.518 172.662 366.518 165.237 373.084 155.32C379.536 145.583 375.722 131.443 368.838 122.976C362.386 115.03 353.037 109.946 343.448 106.363C317.659 96.7355 288.223 96.955 262.791 107.504C255.241 110.64 247.938 114.716 242.277 120.616C236.762 126.363 232.928 134.022 232.869 141.984H232.869Z" stroke="black" stroke-width="7.24"/>
<circle cx="338.686" cy="141.451" r="9.90192" fill="white"/>
<circle cx="306.66" cy="141.451" r="9.90192" fill="white"/>
<circle cx="274.01" cy="141.451" r="9.90192" fill="white"/>
</svg>
