<svg width="400" height="400" viewBox="0 0 400 400" fill="none" xmlns="http://www.w3.org/2000/svg">
<path d="M94.1599 170.278C94.1599 170.278 73.0585 107.841 146.66 115.461C220.262 123.082 185.096 95.4457 212.908 78.2957C240.721 61.1457 322.668 114.501 288.384 165.963C254.1 217.424 343.174 170.349 361.755 247.738C373.221 295.495 344.773 330.646 321.304 350.571" stroke="#CCDDE2" stroke-width="5.47"/>
<path fill-rule="evenodd" clip-rule="evenodd" d="M271.548 219.953C303.367 230.211 322.951 258.874 328.482 290.905C330.783 304.315 330.956 318.384 328.051 331.735C326.409 339.23 324.033 347.662 318.518 353.295C316.204 355.667 313.157 357.187 309.87 357.607C310.673 355.985 311.093 354.2 311.097 352.39C311.121 345.725 305.755 340.294 299.09 340.238L291.43 340.195L279.964 340.136C279.623 340.093 279.263 340.093 278.906 340.093H278.906H271.188L264.684 340.065L229.334 339.877C228.879 339.877 228.405 339.909 227.934 339.952L228.007 339.962C228.283 340.002 228.573 340.044 228.836 340.109C228.532 340.109 228.233 340.134 227.919 340.16L227.875 340.163C233.861 340.899 238.402 345.914 238.542 351.943V352.17C238.55 352.318 238.55 352.466 238.542 352.613C238.188 358.485 233.678 363.26 227.836 363.95C228.144 363.99 228.455 364.013 228.765 364.021C228.477 364.085 228.185 364.134 227.891 364.166L227.945 364.171C228.4 364.212 228.838 364.252 229.294 364.252H228.852C222.576 364.252 218.714 368.109 218.714 372.813C218.719 375.087 219.624 377.266 221.231 378.873C222.787 380.434 224.932 381.39 228.852 381.39H180.534L172.074 359.662L142.227 283.104H76.5203C69.8399 283.108 63.5349 280.015 59.4494 274.729C55.3638 269.444 53.9592 262.563 55.6463 256.099L71.5184 211.729C71.6092 211.983 71.707 212.301 71.8203 212.67C73.0819 216.78 76.274 227.178 93.2979 225.002C95.9714 237.173 99.9149 249.031 105.979 259.909C108.108 263.739 110.836 267.93 114.913 269.929C115.329 270.13 115.758 270.302 116.199 270.442C120.287 271.767 125.32 270.685 129.193 269.415C138.586 266.346 148.147 262.653 156.724 257.722C164.148 253.48 172.984 246.585 172.012 237.408V237.279C171.563 232.114 168.075 227.716 163.148 226.103C160.629 230.243 157.614 234.06 154.172 237.471C151.411 234.776 149.185 231.585 147.61 228.063C146.484 225.537 145.594 222.913 144.952 220.223C163.486 215.617 186.614 211.572 211.2 211.372C208.299 214.045 206.237 217.875 206.841 221.921C207.37 225.511 210.298 228.839 213.317 230.729C218.33 233.873 225.022 233.614 230.423 231.615C235.715 229.67 240.286 225.939 243.602 221.395C245.167 219.2 246.209 216.677 246.648 214.018V213.975C255.085 215.345 263.409 217.343 271.548 219.953ZM221.168 301.136C221.168 301.136 232.509 302.057 239.169 291.806C245.864 281.571 240.098 270.889 240.098 270.889C240.098 270.889 221.153 254.864 217.911 253.022C214.669 251.179 197.895 241.858 187.135 244.202C176.374 246.546 186.978 255.425 187.55 255.538C188.123 255.652 200.028 258.714 200.028 258.714L195.912 260.885C195.912 260.885 192.427 262.857 191.553 268.804C191.471 269.362 191.369 269.968 191.261 270.613C190.216 276.835 188.555 286.734 197.825 293.731C208.056 301.453 209.087 295.495 209.585 291.575C209.585 291.575 215.837 294.245 218.032 298.149C220.228 302.053 221.168 301.136 221.168 301.136Z" fill="#353642"/>
<path d="M93.2822 225.009C93.2822 225.009 102.255 223.92 105.615 217.514L102.686 233.943C102.686 233.943 138.382 221.791 144.928 220.223C144.928 220.223 147.037 233.822 155.434 237.471L164.097 226.456C164.097 226.456 174.959 229.2 171.988 244.002C169.017 258.804 127.919 271.175 120.95 270.889C113.98 270.603 106.477 266.314 98.7937 243.269L93.2822 225.009Z" fill="#353642"/>
<path d="M107.899 188.413C110.173 192.113 112.458 195.806 114.818 199.451C116.272 201.697 118.922 204.9 116.104 207.248C115.187 207.951 114.079 208.361 112.925 208.424C111.114 208.585 109.212 208.15 108.111 206.594L102.623 197.499C100.355 193.738 95.5782 192.349 91.647 194.308" stroke="black" stroke-width="5.47"/>
<path d="M128.656 200.392C130.09 203.802 129.118 206.002 127.441 207.107C124.697 208.906 121.024 208.044 119.079 205.417L107.919 188.432" stroke="black" stroke-width="5.47"/>
<path d="M117.347 183.473C121.408 188.412 126.531 197.585 129.365 201.415C132.2 205.245 136.582 202.936 136.582 202.936C140.141 201.019 139.538 197.84 137.982 193.979C134.148 184.5 128.675 178.197 122.572 174.065C103.658 161.27 84.254 170.71 78.4798 192.795L55.6458 256.099C53.9587 262.563 55.3633 269.444 59.4489 274.729C63.5344 280.015 69.8394 283.108 76.5198 283.104H142.227L180.545 381.394" stroke="black" stroke-width="5.47"/>
<path d="M140.808 189.631C145.512 188.001 145.296 180.498 138.621 177.966C131.247 175.167 118.154 171.207 114.866 170.22C114.845 170.204 114.821 170.194 114.795 170.192C114.564 170.122 114.403 170.063 114.278 170.035L114.093 169.977" stroke="black" stroke-width="5.47"/>
<path d="M210.309 264.648C206.193 259.701 194.927 256.899 187.573 255.542C185.034 255.065 183.116 252.967 182.869 250.395C182.784 249.551 182.882 248.698 183.155 247.894C184.058 245.355 186.578 243.762 189.259 244.037C201.803 245.307 214.739 249.255 224.308 257.757C224.308 257.757 270.693 293.155 276.232 296.6C278.517 297.988 280.65 296.349 279.101 294.17L278.615 293.339C275.889 288.66 272.662 284.291 268.992 280.309" stroke="black" stroke-width="5.47"/>
<path d="M211.168 211.368C152.831 211.854 102.686 233.939 102.686 233.939L107.692 205.88" stroke="black" stroke-width="5.47"/>
<path d="M301.775 364.079C301.775 364.079 295.421 362.641 293.731 367.729C292.042 372.817 290.278 380.912 302.426 381.39C314.574 381.868 307.439 379.481 306.738 375.549C306.036 371.617 301.775 364.079 301.775 364.079Z" fill="#353642"/>
<path d="M204.704 271.105C204.704 271.105 197.848 265.907 191.674 271.175C191.414 271.404 191.187 271.668 191 271.959" stroke="black" stroke-width="5.47"/>
<g opacity="0.77">
<path d="M119.056 205.398C121.016 208.028 124.685 208.886 127.417 207.083C129.076 205.986 130.048 203.798 128.648 200.419C128.903 200.792 129.134 201.121 129.362 201.423C132.192 205.268 136.578 202.952 136.578 202.952C140.138 201.035 139.538 197.856 137.982 193.99C136.459 190.162 134.461 186.541 132.035 183.21C133.623 181.725 135.508 180.223 137.496 180.882C139.64 181.595 140.24 184.285 140.483 186.527C140.596 187.57 140.71 188.6 140.824 189.643L142.541 204.994C143.113 210.09 143.685 215.26 144.928 220.235C145.57 222.925 146.46 225.549 147.586 228.075C149.161 231.596 151.387 234.788 154.148 237.483C157.591 234.072 160.605 230.255 163.125 226.115C168.052 227.728 171.54 232.126 171.988 237.291V237.42C172.96 246.597 164.124 253.492 156.7 257.734C148.123 262.665 138.562 266.358 129.17 269.427C125.297 270.697 120.263 271.779 116.175 270.454C115.735 270.314 115.305 270.142 114.889 269.94C110.812 267.941 108.084 263.751 105.955 259.921C95.7634 241.595 91.5298 220.552 89.2993 199.714C93.7603 199.098 98.2056 198.412 102.596 197.468C102.596 197.468 102.596 197.499 102.623 197.511L107.684 205.903L108.1 206.601C109.197 208.169 111.098 208.589 112.913 208.432C114.067 208.375 115.176 207.964 116.089 207.256C118.903 204.904 116.261 201.713 114.803 199.467" fill="white"/>
<path d="M119.056 205.398C121.016 208.028 124.685 208.886 127.417 207.083C129.076 205.986 130.048 203.798 128.648 200.419C128.903 200.792 129.134 201.121 129.362 201.423C132.192 205.268 136.578 202.952 136.578 202.952C140.138 201.035 139.538 197.856 137.982 193.99C136.459 190.162 134.461 186.541 132.035 183.21C133.623 181.725 135.508 180.223 137.496 180.882C139.64 181.595 140.24 184.285 140.483 186.527C140.596 187.57 140.71 188.6 140.824 189.643L142.541 204.994C143.113 210.09 143.685 215.26 144.928 220.235C145.57 222.925 146.46 225.549 147.586 228.075C149.161 231.596 151.387 234.788 154.148 237.483C157.591 234.072 160.605 230.255 163.125 226.115C168.052 227.728 171.54 232.126 171.988 237.291V237.42C172.96 246.597 164.124 253.492 156.7 257.734C148.123 262.665 138.562 266.358 129.17 269.427C125.297 270.697 120.263 271.779 116.175 270.454C115.735 270.314 115.305 270.142 114.889 269.94C110.812 267.941 108.084 263.751 105.955 259.921C95.7634 241.595 91.5298 220.552 89.2993 199.714C93.7603 199.098 98.2056 198.412 102.596 197.468C102.596 197.468 102.596 197.499 102.623 197.511L107.684 205.903L108.1 206.601C109.197 208.169 111.098 208.589 112.913 208.432C114.067 208.375 115.176 207.964 116.089 207.256C118.903 204.904 116.261 201.713 114.803 199.467" fill="#73CBAE"/>
<path d="M120.259 206.64C121.996 208.992 124.963 208.694 127.417 207.083C128.899 206.103 130.114 206.389 128.864 203.367C129.095 203.696 129.127 202.583 129.33 202.83C131.859 206.264 129.362 201.411 129.362 201.411C132.89 205.868 140.569 201.67 139.162 198.224C137.672 194.512 136.104 189.024 134.117 186.28C135.685 184.798 135.383 185.017 137.378 186.197C138.465 186.896 139.16 188.065 139.256 189.353C139.417 190.846 139.577 192.277 139.738 193.736L141.267 207.456C141.78 212.014 142.29 216.62 143.399 221.058C143.973 223.458 144.768 225.799 145.775 228.051C147.178 231.152 151.686 236.315 154.148 238.678C157.209 235.64 160.879 230.054 163.125 226.342C167.437 227.667 167.249 231.791 167.554 236.295V236.413C168.425 244.601 160.537 250.752 153.928 254.543C146.269 258.945 137.735 262.238 129.35 264.982C125.893 266.118 121.4 267.098 117.751 265.899C117.357 265.775 116.973 265.621 116.602 265.44C112.964 263.653 110.526 259.917 108.625 256.495C100.303 241.548 96.4416 224.578 94.3169 207.565C93.9929 204.919 95.8234 202.493 98.4565 202.077C100.844 201.685 103.223 201.293 105.587 200.768L105.654 200.799L110.169 208.29C111.153 209.682 111.314 208.592 112.933 208.451C113.956 208.361 115.94 208.161 116.731 207.499C119.244 205.405 117.825 204.539 116.524 202.536" fill="#73CBAE"/>
</g>
<path d="M203.877 278.67C203.877 278.67 190.859 274.39 190.663 281.587" stroke="black" stroke-width="5.47"/>
<path opacity="0.54" d="M87.3473 351.986L61.8163 286.577C61.1753 284.012 61.7518 281.295 63.379 279.211C65.0062 277.128 67.5026 275.91 70.1463 275.911H171.557C176.244 275.91 180.321 279.122 181.416 283.68L209.365 349.074C209.977 351.629 209.385 354.325 207.758 356.388C206.13 358.452 203.647 359.657 201.019 359.658H97.1825C92.5322 359.66 88.477 356.497 87.3473 351.986Z" fill="white"/>
<path d="M208.114 289.705C208.114 289.705 210.227 291.642 209.424 294.409C208.828 296.46 206.789 297.753 204.771 297.051C198.342 294.829 192.552 291.054 191.141 284.637C190.474 281.388 190.33 278.053 190.713 274.758C191.023 271.705 191.474 268.408 192.501 265.503C194.069 261.042 198.871 257.934 203.532 260.082" stroke="black" stroke-width="5.47"/>
<path d="M87.3473 351.986L61.8163 286.577C61.1753 284.012 61.7518 281.295 63.379 279.211C65.0062 277.128 67.5026 275.91 70.1463 275.911H171.557C176.244 275.91 180.321 279.122 181.416 283.68L209.365 349.074C209.977 351.629 209.385 354.325 207.758 356.388C206.13 358.452 203.647 359.657 201.019 359.658H97.1825C92.5322 359.66 88.477 356.497 87.3473 351.986Z" fill="#73CBAE"/>
<path fill-rule="evenodd" clip-rule="evenodd" d="M87.3473 351.986L61.8163 286.577C61.1753 284.012 61.7518 281.295 63.379 279.211C65.0062 277.128 67.5026 275.91 70.1463 275.911H171.557C176.244 275.91 180.321 279.122 181.416 283.68L209.365 349.074C209.977 351.629 209.385 354.325 207.758 356.388C206.13 358.452 203.647 359.657 201.019 359.658H97.1825C92.5322 359.66 88.477 356.497 87.3473 351.986V351.986Z" stroke="black" stroke-width="5.47" stroke-linecap="square" stroke-linejoin="round"/>
<path d="M91.0827 349.352L67.5275 288.984C66.9374 286.618 67.47 284.111 68.9715 282.19C70.4729 280.268 72.7758 279.145 75.2146 279.145H168.769C173.093 279.143 176.854 282.106 177.864 286.311L203.653 346.643C204.217 349.002 203.67 351.488 202.168 353.392C200.666 355.296 198.375 356.407 195.951 356.408H100.154C95.8707 356.411 92.1333 353.504 91.0827 349.352Z" fill="#73CBAE"/>
<path d="M291.305 339.881L309.243 381.39" stroke="black" stroke-width="5.47"/>
<path d="M376.4 381.39H23.6001" stroke="black" stroke-width="5.47"/>
<path d="M209.553 194.045C206.645 196.919 202.301 196.915 199.828 194.257" stroke="black" stroke-width="5.47"/>
<path d="M132.035 183.199C133.623 181.713 135.508 180.212 137.496 180.87C139.64 181.584 140.24 184.273 140.483 186.515C141.17 192.677 141.856 198.833 142.541 204.982C143.411 212.822 144.328 220.85 147.586 228.055C149.161 231.577 151.387 234.769 154.148 237.463" stroke="black" stroke-width="5.47"/>
<path d="M171.988 237.416V237.287C171.54 232.122 168.052 227.724 163.125 226.111C160.605 230.251 157.591 234.068 154.148 237.479C145.121 246.454 133.526 252.399 120.969 254.488C121.573 256.891 122.815 259.078 123.674 261.391C124.532 263.704 124.96 266.381 123.917 268.611C122.6 271.457 118.821 271.085 116.195 270.454C116.167 270.454 116.151 270.454 116.124 270.454" stroke="black" stroke-width="5.47"/>
<path d="M102.604 197.464C98.2134 198.408 93.7681 199.094 89.3071 199.71C91.5376 220.549 95.7555 241.591 105.963 259.917C108.092 263.747 110.82 267.937 114.897 269.937C115.313 270.138 115.742 270.31 116.183 270.45C120.271 271.795 125.304 270.693 129.177 269.423C138.585 266.35 148.131 262.661 156.708 257.73C164.112 253.484 172.948 246.593 171.996 237.416C171.903 236.406 171.697 235.409 171.38 234.445" stroke="black" stroke-width="5.47"/>
<path d="M176.018 155.896C177.366 161.521 182.154 165.657 187.915 166.174C188.148 165.043 188.654 163.985 189.389 163.093C192.525 159.397 193.861 166.331 203.893 161.353C217.793 154.438 223.069 158.405 223.069 158.405C223.532 158.75 223.461 161.933 223.54 162.513C223.932 165.818 224.285 169.107 224.673 172.407C224.908 174.422 225.139 176.421 225.359 178.42C225.548 178.08 225.757 177.752 225.986 177.437C227.252 172.956 229.514 167.664 234.39 169.942C235.378 170.423 236.237 171.131 236.899 172.007C240.133 176.257 237.683 180.361 234.3 183.399C233.452 184.341 232.505 185.189 231.474 185.927C232.03 187.08 234.304 191.654 234.304 191.67C234.539 192.133 242.485 183.14 243.077 182.16C243.961 179.759 244.436 177.227 244.48 174.669C244.61 164.152 240.329 151.91 231.811 145.877C229.698 144.383 230.372 142.944 230.243 140.914C230.224 140.689 230.07 140.499 229.853 140.436C229.637 140.372 229.404 140.449 229.267 140.628C226.597 143.701 219.988 143.395 219.988 143.395C197.048 137.649 189.338 147.848 184.708 149.667C182.819 150.383 180.74 150.418 178.828 149.765C178.599 151.055 177.674 152.112 176.425 152.509L176.543 153.572C176.643 154.384 176.457 155.206 176.018 155.896H176.018Z" fill="#73CBAE"/>
<path d="M187.931 166.19C182.17 165.673 177.382 161.536 176.033 155.912C175.776 154.86 175.613 153.786 175.547 152.705L175.728 152.686C175.974 152.667 176.217 152.614 176.449 152.529C177.697 152.131 178.623 151.075 178.852 149.785C178.924 149.434 178.938 149.074 178.895 148.719L178.307 143.528C178.307 143.528 182.454 146.614 187.056 144.81C191.659 143.007 199.385 132.807 222.336 138.538C222.336 138.538 227.519 138.844 230.176 135.771C230.313 135.592 230.546 135.515 230.763 135.579C230.979 135.642 231.134 135.832 231.153 136.057C231.29 138.091 232.042 139.53 234.159 141.02C242.677 147.056 246.958 159.295 246.825 169.812C246.786 174.175 245.335 178.483 243.097 182.18C242.505 183.16 234.559 192.152 234.324 191.69C234.324 191.69 232.05 187.099 231.494 185.947L231.36 185.692L231.615 185.523C232.561 184.881 233.465 184.178 234.32 183.418C237.699 180.38 240.153 176.276 236.919 172.027C236.257 171.15 235.397 170.442 234.41 169.961C229.518 167.684 227.272 172.976 226.006 177.456C225.76 178.312 225.609 179.193 225.555 180.082C225.496 179.534 225.437 179.005 225.378 178.456C225.159 176.457 224.928 174.457 224.692 172.442C224.3 169.142 223.932 165.853 223.56 162.548C223.501 161.984 223.56 158.785 223.089 158.44C223.089 158.44 217.809 154.473 203.912 161.388C193.881 166.366 192.544 159.428 189.408 163.129C188.674 164.02 188.168 165.078 187.935 166.21C187.863 166.573 187.817 166.941 187.797 167.311C187.79 167.359 187.79 167.408 187.797 167.456C187.75 168.268 187.735 169.075 187.715 169.867C187.641 177.507 188.479 185.488 191.478 192.583C195.124 201.184 204.771 209.667 214.802 205.657C217.938 204.398 220.749 202.372 223.32 200.22" stroke="black" stroke-width="5.47"/>
<ellipse cx="194.064" cy="182.638" rx="1.90512" ry="2.30496" transform="rotate(-18.5 194.064 182.638)" fill="black"/>
<ellipse cx="208.989" cy="182.161" rx="1.90512" ry="2.30496" transform="rotate(-18.5 208.989 182.161)" fill="black"/>
<path d="M204.014 186.93C204.014 186.93 199.048 189.749 198.746 186.825C198.652 185.923 197.437 177.091 197.437 177.091C197.437 177.091 193.422 172.838 187.272 175.982" stroke="black" stroke-width="5.47"/>
<path d="M202.897 174.618C202.897 174.618 210.917 170.612 216.225 176.386" stroke="black" stroke-width="5.47"/>
<path d="M210.251 206.64L211.172 211.368C208.268 214.045 206.214 217.883 206.813 221.924C207.347 225.507 210.279 228.843 213.285 230.721C218.311 233.857 224.994 233.61 230.404 231.614C235.692 229.654 240.267 225.934 243.583 221.395C245.145 219.201 246.185 216.679 246.625 214.021V213.974" stroke="black" stroke-width="5.47"/>
<path d="M211.172 211.368L212.968 219.905" stroke="black" stroke-width="5.47"/>
<path d="M236.562 189.631L239.275 207.644C239.828 211.288 242.963 213.979 246.649 213.975C255.091 215.343 263.419 217.34 271.564 219.949C303.383 230.211 322.967 258.874 328.498 290.901C330.799 304.311 330.972 318.376 328.083 331.712C326.44 339.219 324.065 347.65 318.549 353.272C311.387 360.602 300.396 357.584 291.932 354.271C265.657 344.052 243.803 325.871 224.932 305.056C214.842 293.923 201.804 285.001 201.804 285.001" stroke="black" stroke-width="5.47"/>
<path d="M99.7655 335.84C96.8176 335.812 94.25 333.433 93.5876 330.12C92.2783 323.605 91.9333 313.531 101.486 311.332C113.423 308.588 122.603 321.587 127.104 329.803C128.617 332.547 126.904 336.075 124.085 336.075L99.7655 335.84Z" fill="#D7E8F0"/>
<ellipse cx="99.2045" cy="299.035" rx="5.51152" ry="8.12616" transform="rotate(-33.64 99.2045 299.035)" fill="#D7E8F0"/>
<path d="M299.87 364.295C299.686 364.323 299.478 364.35 299.298 364.393H299.227L271.344 364.248L229.506 364.032C229.345 364.032 229.188 364.032 229.032 364.032C228.721 364.025 228.411 364.001 228.103 363.962C233.954 363.282 238.47 358.495 238.808 352.614C238.816 352.466 238.816 352.318 238.808 352.171V351.943C238.785 346.197 234.732 341.256 229.102 340.109C228.816 340.038 228.502 339.995 228.201 339.952C228.675 339.909 229.145 339.877 229.604 339.877L264.951 340.066L271.458 340.093L280.235 340.136C286.462 340.704 291.235 345.917 291.254 352.171C291.254 352.74 291.211 353.309 291.124 353.872C290.261 359.809 285.184 364.221 279.184 364.248H300.423C299.2 364.248 299.541 364.248 299.87 364.295Z" fill="white"/>
<path d="M243.312 378.874C244.921 380.491 247.111 381.398 249.392 381.39H228.859C224.939 381.39 222.799 380.434 221.239 378.874C219.636 377.263 218.733 375.085 218.726 372.813C218.726 368.109 222.583 364.252 228.859 364.252H249.392C245.925 364.247 242.798 366.333 241.47 369.535C240.143 372.738 240.878 376.425 243.332 378.874H243.312Z" fill="#D7E8F0"/>
<path d="M311.124 352.386C311.119 354.196 310.698 355.982 309.893 357.604C309.319 358.829 308.53 359.943 307.565 360.892C305.973 362.47 303.974 363.573 301.791 364.079C300.891 364.287 299.97 364.392 299.047 364.393C299.235 364.35 299.439 364.322 299.619 364.295C299.29 364.264 298.949 364.252 300.176 364.252H278.933C284.937 364.229 290.019 359.813 290.881 353.872C290.968 353.309 291.011 352.74 291.011 352.17C290.992 345.916 286.217 340.702 279.988 340.136L291.454 340.195L299.113 340.238C305.777 340.294 311.144 345.722 311.124 352.386Z" fill="#73CBAE"/>
<path fill-rule="evenodd" clip-rule="evenodd" d="M311.124 352.382C311.075 359.051 305.641 364.423 298.972 364.397L229.228 364.036C228.761 364.036 228.295 364.001 227.824 363.954C233.909 363.264 238.517 358.132 238.549 352.009C238.581 345.885 234.027 340.705 227.95 339.952C228.416 339.903 228.884 339.879 229.353 339.881L299.098 340.242C305.765 340.287 311.142 345.714 311.124 352.382V352.382Z" stroke="black" stroke-width="5.47" stroke-linecap="square" stroke-linejoin="round"/>
<path fill-rule="evenodd" clip-rule="evenodd" d="M291.003 352.166C290.99 358.833 285.589 364.235 278.922 364.248H229.298C228.83 364.245 228.361 364.219 227.895 364.169C233.976 363.448 238.556 358.292 238.556 352.168C238.556 346.045 233.976 340.889 227.895 340.167C228.361 340.124 228.832 340.093 229.298 340.093H278.922C285.585 340.108 290.984 345.503 291.003 352.166V352.166Z" stroke="black" stroke-width="5.47" stroke-linecap="square" stroke-linejoin="round"/>
<path fill-rule="evenodd" clip-rule="evenodd" d="M218.726 372.817C218.725 375.088 219.628 377.265 221.235 378.869C222.803 380.437 224.931 381.39 228.855 381.39H300.172C298.945 381.39 299.278 381.366 299.611 381.335C295.292 380.827 292.037 377.166 292.037 372.817C292.037 368.468 295.292 364.807 299.611 364.299C299.278 364.267 298.945 364.244 300.172 364.244H228.855C222.576 364.248 218.726 368.105 218.726 372.817H218.726Z" stroke="black" stroke-width="5.47" stroke-linecap="square" stroke-linejoin="round"/>
<path fill-rule="evenodd" clip-rule="evenodd" d="M240.796 372.817C240.807 377.547 244.639 381.379 249.369 381.39H298.616C298.945 381.39 299.278 381.366 299.612 381.335C295.292 380.827 292.037 377.166 292.037 372.817C292.037 368.468 295.292 364.807 299.612 364.299C299.278 364.267 298.945 364.244 298.616 364.244H249.369C244.64 364.257 240.809 368.088 240.796 372.817H240.796Z" stroke="black" stroke-width="5.47" stroke-linecap="square" stroke-linejoin="round"/>
<path d="M160.965 307.408H138.966C136.909 307.404 135.049 306.187 134.223 304.303C133.905 303.606 133.967 302.795 134.387 302.154C134.807 301.513 135.526 301.131 136.292 301.144H159.679C158.578 302.998 159.138 305.573 160.965 307.408Z" fill="#D7E8F0"/>
<path d="M175.19 305.142C175.188 306.391 174.177 307.402 172.929 307.404H160.965C159.138 305.573 158.578 302.998 159.679 301.132H170.243C172.297 301.133 174.158 302.343 174.991 304.221C175.117 304.512 175.185 304.825 175.19 305.142Z" fill="#73CBAE"/>
<path d="M169.687 307.408C169.625 307.528 169.553 307.642 169.471 307.749C167.903 309.893 164.497 310.101 161.851 308.164C161.538 307.934 161.242 307.681 160.965 307.408C159.138 305.577 158.578 303.002 159.679 301.136C159.741 301.016 159.813 300.902 159.895 300.795C161.463 298.635 164.853 298.443 167.499 300.364C167.818 300.602 168.118 300.864 168.397 301.148C170.208 302.97 170.773 305.53 169.687 307.408Z" fill="white"/>
<path d="M180.721 318.952C180.713 320.202 179.697 321.21 178.448 321.21H155.363C156.476 319.336 155.92 316.781 154.089 314.938H175.774C177.832 314.939 179.694 316.155 180.521 318.039C180.651 318.326 180.719 318.637 180.721 318.952Z" fill="#73CBAE"/>
<path d="M155.363 321.21H144.501C142.446 321.212 140.584 320 139.754 318.121C139.626 317.834 139.557 317.523 139.554 317.208C139.553 316.609 139.79 316.034 140.214 315.61C140.638 315.186 141.212 314.949 141.812 314.95H154.089C155.92 316.781 156.488 319.336 155.363 321.21Z" fill="#D7E8F0"/>
<path d="M155.363 321.21C155.312 321.334 155.245 321.45 155.163 321.555C153.595 323.711 150.2 323.907 147.558 321.982C147.239 321.744 146.937 321.482 146.657 321.198C144.842 319.368 144.285 316.812 145.371 314.926C145.434 314.806 145.506 314.691 145.587 314.582C147.155 312.437 150.561 312.23 153.203 314.17C153.518 314.399 153.814 314.652 154.089 314.926C155.92 316.781 156.488 319.336 155.363 321.21Z" fill="white"/>
<path d="M163.054 334.919H149.232C147.179 334.916 145.319 333.706 144.485 331.83C144.169 331.13 144.232 330.318 144.652 329.675C145.072 329.033 145.791 328.649 146.559 328.658H161.768C160.679 330.536 161.239 333.088 163.054 334.919Z" fill="#73CBAE"/>
<path d="M185.453 332.676C185.446 333.918 184.437 334.921 183.195 334.918H163.054C161.239 333.088 160.678 330.532 161.768 328.646H180.506C182.563 328.647 184.426 329.864 185.253 331.747C185.382 332.04 185.45 332.356 185.453 332.676Z" fill="#D7E8F0"/>
<path d="M171.776 334.918C171.713 335.039 171.641 335.154 171.56 335.263C169.992 337.419 166.602 337.615 163.956 335.691C163.638 335.451 163.338 335.189 163.058 334.907C161.243 333.076 160.682 330.52 161.772 328.635C161.832 328.513 161.903 328.398 161.984 328.29C163.552 326.145 166.958 325.961 169.604 327.878C169.919 328.107 170.215 328.36 170.49 328.635C172.317 330.489 172.874 333.06 171.776 334.918Z" fill="white"/>
<path d="M67.3512 209.945L67.6961 210.043L67.5668 210.545C67.4848 210.349 67.4129 210.148 67.3512 209.945Z" fill="#353642"/>
<ellipse cx="125.411" cy="230.109" rx="9.73728" ry="11.6698" transform="rotate(-16.36 125.411 230.109)" fill="#D7E8F0"/>
</svg>
