<svg width="400" height="400" viewBox="0 0 400 400" fill="none" xmlns="http://www.w3.org/2000/svg">
<path d="M212.038 100.867C245.911 99.0522 287.169 108.809 314.205 129.973C329.924 142.262 336.424 163.015 335.855 182.395C335.161 205.421 324.699 220.29 308.627 235.899C288.098 255.821 307.682 281.426 307.126 304.554C306.796 317.992 302.704 331.068 295.315 342.296C291.042 348.807 277.283 361.802 271.438 366.933" stroke="#CCDDE2" stroke-width="4.35"/>
<path d="M105.528 355.42C102.517 354.307 99.5669 353.115 96.6766 351.845C94.9283 351.061 93.2061 350.254 91.51 349.423C73.1291 340.301 55.9203 315.609 68.2801 295.327C74.4933 285.135 86.5669 279.674 91.3611 268.62C97.6331 254.147 86.0338 239.847 82.8978 226.092C80.456 215.406 80.3103 204.325 82.4705 193.579C84.5795 183.183 88.6994 171.901 96.5629 164.453C99.0129 162.133 101.996 160.29 105.301 159.616" stroke="#CCDDE2" stroke-width="4.35"/>
<mask id="mask0_16_462" style="mask-type:luminance" maskUnits="userSpaceOnUse" x="64" y="100" width="272" height="273">
<path fill-rule="evenodd" clip-rule="evenodd" d="M154.41 370.473C135.724 364.436 114.818 359.85 96.6922 351.845C94.9438 351.061 93.223 350.255 91.5295 349.427C73.1447 340.301 55.9359 315.605 68.2957 295.331C74.505 285.139 86.5864 279.682 91.3806 268.624C97.6526 254.147 86.0494 239.847 82.9094 226.096C79.3579 210.533 83.027 192.407 91.3139 178.499C97.7701 167.664 109.46 157.848 121.764 143.435C138.883 123.395 183.144 102.42 212.034 100.867C245.911 99.0444 287.165 108.809 314.205 129.965C329.92 142.262 336.428 163.015 335.851 182.391C335.161 205.414 324.695 220.294 308.627 235.896C288.102 255.829 307.69 281.422 307.13 304.558C306.799 317.995 302.705 331.07 295.315 342.296C291.053 348.841 285.928 354.781 280.078 359.956C275.26 364.181 266.291 367.263 263.03 372.657" fill="white"/>
</mask>
<g mask="url(#mask0_16_462)">
<path fill-rule="evenodd" clip-rule="evenodd" d="M311.277 198.283H324.895V376.153H311.277V198.283Z" stroke="#CCDDE2" stroke-width="4.35"/>
<path d="M216.029 290.874L216.019 293.049H216.029V290.874ZM215.163 289.995L217.338 290.015L217.338 290.005V289.995H215.163ZM230.141 282.132V284.307L230.151 284.307L230.141 282.132ZM231.015 282.998H233.19L233.19 282.988L231.015 282.998ZM231.015 289.995H228.84V290.005L228.84 290.015L231.015 289.995ZM230.141 290.874L230.151 288.699H230.141V290.874ZM240.843 302.242L243.017 302.299L243.017 302.273L243.018 302.248L240.843 302.242ZM239.984 303.096V305.271H240.008L240.032 305.271L239.984 303.096ZM225.872 303.096V300.921H225.872L225.872 303.096ZM224.998 302.23H222.823V302.24L222.823 302.249L224.998 302.23ZM224.998 295.229L222.823 295.209L222.823 295.219V295.229H224.998ZM225.872 294.362L225.872 296.537H225.872V294.362ZM239.984 294.362V296.537H239.984L239.984 294.362ZM240.862 295.229L243.037 295.235L243.037 295.217L243.037 295.2L240.862 295.229ZM233.787 290.003L232.249 291.541L235.962 295.254V290.003H233.787ZM233.787 282.998L231.612 282.988V282.998H233.787ZM234.661 282.132L234.651 284.307H234.661V282.132ZM248.773 282.132V284.307H248.773L248.773 282.132ZM249.647 282.998H251.822V282.988L251.822 282.979L249.647 282.998ZM249.647 289.995H247.472L247.472 290.005L249.647 289.995ZM248.773 290.874L248.773 288.699H248.773V290.874ZM234.661 290.874V288.699H234.646L234.631 288.699L234.661 290.874ZM233.779 289.995L235.317 288.457L231.651 284.792L231.604 289.976L233.779 289.995ZM259.4 302.242L261.575 302.271L261.575 302.255L261.575 302.239L259.4 302.242ZM258.526 303.096L258.546 300.921L258.536 300.921H258.526V303.096ZM259.392 295.229H257.217V295.231L259.392 295.229ZM268.267 290.003H266.092V290.013L266.092 290.023L268.267 290.003ZM267.393 290.881L267.403 288.706H267.393V290.881ZM253.281 290.881L253.271 293.056H253.281V290.881ZM252.414 290.003L254.589 290.023L254.589 290.013V290.003H252.414ZM267.393 282.132V284.307L267.402 284.307L267.393 282.132ZM268.267 282.998H270.442L270.442 282.988L268.267 282.998ZM286.879 290.003H284.704V290.013L284.704 290.023L286.879 290.003ZM286.013 290.881V293.056L286.022 293.056L286.013 290.881ZM271.901 290.881V288.706L271.891 288.706L271.901 290.881ZM271.027 290.003L273.201 290.023L273.202 290.013V290.003H271.027ZM271.027 282.998L268.852 282.988V282.998H271.027ZM271.901 282.132L271.891 284.307H271.901V282.132ZM286.013 282.132V279.957V282.132ZM299.948 263.739L297.773 263.738L297.773 263.74L299.948 263.739ZM291.689 272.01V274.185H291.691L291.689 272.01ZM222.783 272.01V269.835H222.782L222.783 272.01ZM214.504 263.716L216.679 263.721V263.716H214.504ZM214.504 234.559H216.679V234.558L214.504 234.559ZM222.771 226.288V228.463V228.463V226.288ZM291.681 226.288V228.463L291.686 228.463L291.681 226.288ZM299.96 234.559L297.785 234.556V234.558L299.96 234.559ZM298.741 216.652L300.287 218.182L301.227 217.232L300.804 215.964L298.741 216.652ZM295.836 217.86L295.843 215.685H295.836V217.86ZM219.279 217.86V215.685H219.279L219.279 217.86ZM215.163 213.72L217.338 213.733L217.338 213.728L215.163 213.72ZM219.279 209.608V207.433L219.272 207.433L219.279 209.608ZM295.828 209.608V211.783L295.839 211.783L295.828 209.608ZM299.96 213.72L302.135 213.722V213.72L299.96 213.72ZM298.733 216.629L297.214 215.072L296.239 216.024L296.67 217.317L298.733 216.629ZM311.277 198.307H313.452V196.132H311.277V198.307ZM311.277 376.153V378.328H313.452V376.153H311.277ZM293.041 376.153H290.866V378.328H293.041V376.153ZM293.041 321.52H295.216V321.519L293.041 321.52ZM284.77 313.257V315.432H284.771L284.77 313.257ZM230.333 313.257L230.332 315.432H230.333V313.257ZM222.062 321.52L219.887 321.519V321.52H222.062ZM222.062 376.153V378.328H224.237V376.153H222.062ZM216.029 290.874L216.039 288.699C216.386 288.7 216.718 288.84 216.962 289.087L215.413 290.614L213.865 292.142C214.434 292.719 215.209 293.045 216.019 293.048L216.029 290.874ZM215.413 290.614L216.962 289.087C217.205 289.334 217.341 289.668 217.338 290.015L215.163 289.995L212.988 289.976C212.98 290.786 213.296 291.565 213.865 292.142L215.413 290.614ZM215.163 289.995H217.338V282.998H215.163H212.988V289.995H215.163ZM215.163 282.998H217.338C217.338 283.345 217.2 283.678 216.954 283.924L215.416 282.386L213.878 280.848C213.308 281.418 212.988 282.192 212.988 282.998H215.163ZM215.416 282.386L216.954 283.924C216.709 284.169 216.376 284.307 216.029 284.307V282.132V279.957C215.222 279.957 214.449 280.277 213.878 280.848L215.416 282.386ZM216.029 282.132V284.307H230.141V282.132V279.957H216.029V282.132ZM230.141 282.132L230.151 284.307C229.805 284.308 229.472 284.172 229.226 283.929L230.757 282.384L232.288 280.839C231.715 280.271 230.939 279.953 230.131 279.957L230.141 282.132ZM230.757 282.384L229.226 283.929C228.981 283.685 228.842 283.354 228.84 283.008L231.015 282.998L233.19 282.988C233.186 282.181 232.862 281.408 232.288 280.839L230.757 282.384ZM231.015 282.998H228.84V289.995H231.015H233.19V282.998H231.015ZM231.015 289.995L228.84 290.015C228.837 289.666 228.974 289.33 229.22 289.083L230.762 290.617L232.303 292.152C232.878 291.574 233.197 290.791 233.19 289.976L231.015 289.995ZM230.762 290.617L229.22 289.083C229.467 288.835 229.802 288.697 230.151 288.699L230.141 290.874L230.131 293.048C230.946 293.052 231.728 292.729 232.303 292.152L230.762 290.617ZM230.141 290.874V288.699H216.029V290.874V293.049H230.141V290.874ZM240.843 302.242L238.668 302.184C238.687 301.492 239.245 300.937 239.936 300.922L239.984 303.096L240.032 305.271C241.66 305.235 242.974 303.927 243.017 302.299L240.843 302.242ZM239.984 303.096V300.921H225.872V303.096V305.271H239.984V303.096ZM225.872 303.096L225.872 300.921C226.586 300.921 227.166 301.496 227.173 302.21L224.998 302.23L222.823 302.249C222.838 303.923 224.199 305.271 225.872 305.271L225.872 303.096ZM224.998 302.23H227.173V295.229H224.998H222.823V302.23H224.998ZM224.998 295.229L227.173 295.248C227.166 295.962 226.586 296.537 225.872 296.537L225.872 294.362L225.872 292.187C224.199 292.187 222.838 293.536 222.823 295.209L224.998 295.229ZM225.872 294.362V296.537H239.984V294.362V292.187H225.872V294.362ZM239.984 294.362L239.984 296.537C239.275 296.537 238.697 295.967 238.687 295.258L240.862 295.229L243.037 295.2C243.015 293.529 241.654 292.187 239.984 292.187L239.984 294.362ZM240.862 295.229L238.687 295.223L238.668 302.235L240.843 302.242L243.018 302.248L243.037 295.235L240.862 295.229ZM233.787 290.003H235.962V282.998H233.787H231.612V290.003H233.787ZM233.787 282.998L235.961 283.008C235.96 283.354 235.821 283.685 235.575 283.929L234.044 282.384L232.513 280.839C231.939 281.408 231.615 282.181 231.612 282.988L233.787 282.998ZM234.044 282.384L235.575 283.929C235.329 284.172 234.997 284.308 234.651 284.307L234.661 282.132L234.67 279.957C233.863 279.953 233.087 280.271 232.513 280.839L234.044 282.384ZM234.661 282.132V284.307H248.773V282.132V279.957H234.661V282.132ZM248.773 282.132L248.773 284.307C248.059 284.307 247.478 283.732 247.472 283.018L249.647 282.998L251.822 282.979C251.807 281.305 250.446 279.957 248.773 279.957L248.773 282.132ZM249.647 282.998H247.472V289.995H249.647H251.822V282.998H249.647ZM249.647 289.995L247.472 290.005C247.47 289.659 247.607 289.327 247.851 289.082L249.392 290.616L250.934 292.151C251.506 291.576 251.825 290.797 251.822 289.986L249.647 289.995ZM249.392 290.616L247.851 289.082C248.095 288.836 248.427 288.699 248.773 288.699L248.773 290.874L248.773 293.049C249.584 293.049 250.361 292.725 250.934 292.151L249.392 290.616ZM248.773 290.874V288.699H234.661V290.874V293.049H248.773V290.874ZM234.661 290.874L234.631 288.699C234.982 288.694 235.321 288.831 235.569 289.079L234.035 290.62L232.5 292.161C233.081 292.74 233.871 293.059 234.69 293.048L234.661 290.874ZM234.035 290.62L235.569 289.079C235.818 289.326 235.957 289.664 235.954 290.015L233.779 289.995L231.604 289.976C231.596 290.795 231.92 291.583 232.5 292.161L234.035 290.62ZM233.779 289.995L232.241 291.533L232.249 291.541L233.787 290.003L235.324 288.465L235.317 288.457L233.779 289.995ZM259.4 302.242L257.225 302.212C257.235 301.492 257.825 300.915 258.546 300.921L258.526 303.096L258.506 305.271C260.18 305.286 261.552 303.945 261.575 302.271L259.4 302.242ZM258.526 303.096V300.921H244.414V303.096V305.271H258.526V303.096ZM244.414 303.096V300.921C245.136 300.921 245.722 301.507 245.722 302.23H243.547H241.372C241.372 303.909 242.734 305.271 244.414 305.271V303.096ZM243.547 302.23H245.722V295.229H243.547H241.372V302.23H243.547ZM243.547 295.229H245.722C245.722 295.951 245.136 296.537 244.414 296.537V294.362V292.187C242.734 292.187 241.372 293.549 241.372 295.229H243.547ZM244.414 294.362V296.537H258.526V294.362V292.187H244.414V294.362ZM258.526 294.362V296.537C257.803 296.537 257.217 295.951 257.217 295.229H259.392H261.567C261.567 293.549 260.205 292.187 258.526 292.187V294.362ZM259.392 295.229L257.217 295.231L257.225 302.244L259.4 302.242L261.575 302.239L261.567 295.226L259.392 295.229ZM268.267 290.003L266.092 290.023C266.089 289.674 266.226 289.338 266.472 289.091L268.013 290.625L269.555 292.16C270.13 291.582 270.449 290.798 270.442 289.984L268.267 290.003ZM268.013 290.625L266.472 289.091C266.718 288.843 267.053 288.705 267.403 288.706L267.393 290.881L267.383 293.056C268.198 293.06 268.98 292.737 269.555 292.16L268.013 290.625ZM267.393 290.881V288.706H253.281V290.881V293.056H267.393V290.881ZM253.281 290.881L253.29 288.706C253.637 288.708 253.97 288.848 254.213 289.095L252.665 290.622L251.117 292.15C251.686 292.727 252.461 293.053 253.271 293.056L253.281 290.881ZM252.665 290.622L254.213 289.095C254.457 289.342 254.592 289.676 254.589 290.023L252.414 290.003L250.239 289.984C250.232 290.794 250.548 291.573 251.117 292.15L252.665 290.622ZM252.414 290.003H254.589V282.998H252.414H250.239V290.003H252.414ZM252.414 282.998H254.589C254.589 283.721 254.003 284.307 253.281 284.307V282.132V279.957C251.601 279.957 250.239 281.319 250.239 282.998H252.414ZM253.281 282.132V284.307H267.393V282.132V279.957H253.281V282.132ZM267.393 282.132L267.402 284.307C267.056 284.308 266.724 284.172 266.478 283.929L268.009 282.384L269.54 280.839C268.967 280.271 268.19 279.953 267.383 279.957L267.393 282.132ZM268.009 282.384L266.478 283.929C266.232 283.685 266.093 283.354 266.092 283.008L268.267 282.998L270.442 282.988C270.438 282.181 270.114 281.408 269.54 280.839L268.009 282.384ZM268.267 282.998H266.092V290.003H268.267H270.442V282.998H268.267ZM286.879 290.003L284.704 290.023C284.701 289.676 284.836 289.342 285.08 289.095L286.628 290.622L288.177 292.15C288.745 291.573 289.061 290.794 289.054 289.984L286.879 290.003ZM286.628 290.622L285.08 289.095C285.324 288.848 285.656 288.708 286.003 288.706L286.013 290.881L286.022 293.056C286.832 293.053 287.608 292.727 288.177 292.15L286.628 290.622ZM286.013 290.881V288.706H271.901V290.881V293.056H286.013V290.881ZM271.901 290.881L271.891 288.706C272.24 288.705 272.575 288.843 272.821 289.091L271.28 290.625L269.739 292.16C270.313 292.737 271.096 293.06 271.911 293.056L271.901 290.881ZM271.28 290.625L272.821 289.091C273.068 289.338 273.205 289.674 273.201 290.023L271.027 290.003L268.852 289.984C268.844 290.798 269.164 291.582 269.739 292.16L271.28 290.625ZM271.027 290.003H273.202V282.998H271.027H268.852V290.003H271.027ZM271.027 282.998L273.201 283.008C273.2 283.354 273.061 283.685 272.815 283.929L271.284 282.384L269.753 280.839C269.179 281.408 268.855 282.181 268.852 282.988L271.027 282.998ZM271.284 282.384L272.815 283.929C272.569 284.172 272.237 284.308 271.891 284.307L271.901 282.132L271.91 279.957C271.103 279.953 270.327 280.271 269.753 280.839L271.284 282.384ZM271.901 282.132V284.307H286.013V282.132V279.957H271.901V282.132ZM286.013 282.132V284.307C285.29 284.307 284.704 283.721 284.704 282.998H286.879H289.054C289.054 281.319 287.692 279.957 286.013 279.957V282.132ZM286.879 282.998H284.704V290.003H286.879H289.054V282.998H286.879ZM299.948 263.739L297.773 263.74C297.775 267.104 295.05 269.832 291.687 269.835L291.689 272.01L291.691 274.185C297.456 274.18 302.126 269.503 302.123 263.738L299.948 263.739ZM291.689 272.01V269.835H222.783V272.01V274.185H291.689V272.01ZM222.783 272.01L222.782 269.835C221.161 269.836 219.607 269.192 218.462 268.045L216.922 269.581L215.383 271.118C217.344 273.083 220.007 274.187 222.784 274.185L222.783 272.01ZM216.922 269.581L218.462 268.045C217.317 266.898 216.675 265.342 216.679 263.721L214.504 263.716L212.329 263.711C212.322 266.487 213.421 269.152 215.383 271.118L216.922 269.581ZM214.504 263.716H216.679V234.559H214.504H212.329V263.716H214.504ZM214.504 234.559L216.679 234.558C216.678 232.941 217.32 231.391 218.462 230.248L216.924 228.71L215.386 227.173C213.427 229.132 212.328 231.79 212.329 234.56L214.504 234.559ZM216.924 228.71L218.462 230.248C219.605 229.105 221.155 228.463 222.771 228.463V226.288V224.113C220.001 224.113 217.344 225.213 215.386 227.173L216.924 228.71ZM222.771 226.288V228.463H291.681V226.288V224.113H222.771V226.288ZM291.681 226.288L291.686 228.463C293.304 228.459 294.856 229.099 296.001 230.243L297.538 228.704L299.075 227.165C297.113 225.204 294.45 224.106 291.676 224.113L291.681 226.288ZM297.538 228.704L296.001 230.243C297.145 231.386 297.787 232.938 297.785 234.556L299.96 234.559L302.135 234.562C302.139 231.788 301.038 229.126 299.075 227.165L297.538 228.704ZM299.96 234.559L297.785 234.558L297.773 263.738L299.948 263.739L302.123 263.74L302.135 234.56L299.96 234.559ZM298.741 216.652L297.195 215.123C296.838 215.484 296.35 215.686 295.843 215.685L295.836 217.86L295.83 220.035C297.504 220.04 299.11 219.372 300.287 218.182L298.741 216.652ZM295.836 217.86V215.685H219.279V217.86V220.035H295.836V217.86ZM219.279 217.86L219.279 215.685C218.762 215.685 218.266 215.479 217.902 215.112L216.36 216.646L214.817 218.179C215.998 219.367 217.604 220.035 219.279 220.035L219.279 217.86ZM216.36 216.646L217.902 215.112C217.538 214.746 217.335 214.249 217.338 213.733L215.163 213.72L212.988 213.708C212.978 215.382 213.637 216.992 214.817 218.179L216.36 216.646ZM215.163 213.72L217.338 213.728C217.342 212.655 218.211 211.786 219.285 211.783L219.279 209.608L219.272 207.433C215.808 207.443 213.001 210.247 212.988 213.712L215.163 213.72ZM219.279 209.608V211.783H295.828V209.608V207.433H219.279V209.608ZM295.828 209.608L295.839 211.783C296.354 211.781 296.849 211.984 297.214 212.347L298.749 210.805L300.283 209.264C299.097 208.084 297.491 207.425 295.818 207.433L295.828 209.608ZM298.749 210.805L297.214 212.347C297.58 212.711 297.785 213.205 297.785 213.72L299.96 213.72L302.135 213.72C302.135 212.047 301.469 210.444 300.283 209.264L298.749 210.805ZM299.96 213.72L297.785 213.718C297.785 214.228 297.579 214.716 297.214 215.072L298.733 216.629L300.252 218.185C301.455 217.011 302.134 215.402 302.135 213.722L299.96 213.72ZM298.733 216.629L296.67 217.317L296.678 217.34L298.741 216.652L300.804 215.964L300.796 215.941L298.733 216.629ZM203.05 198.307V200.482H311.277V198.307V196.132H203.05V198.307ZM311.277 198.307H309.102V376.153H311.277H313.452V198.307H311.277ZM311.277 376.153V373.978H293.041V376.153V378.328H311.277V376.153ZM293.041 376.153H295.216V321.52H293.041H290.866V376.153H293.041ZM293.041 321.52L295.216 321.519C295.215 318.75 294.113 316.094 292.154 314.137L290.617 315.675L289.08 317.214C290.223 318.356 290.865 319.905 290.866 321.521L293.041 321.52ZM290.617 315.675L292.154 314.137C290.195 312.179 287.538 311.08 284.769 311.082L284.77 313.257L284.771 315.432C286.387 315.431 287.937 316.072 289.08 317.214L290.617 315.675ZM284.77 313.257V311.082H230.333V313.257V315.432H284.77V313.257ZM230.333 313.257L230.334 311.082C227.565 311.08 224.908 312.179 222.949 314.137L224.486 315.675L226.023 317.214C227.166 316.072 228.716 315.431 230.332 315.432L230.333 313.257ZM224.486 315.675L222.949 314.137C220.99 316.094 219.888 318.75 219.887 321.519L222.062 321.52L224.237 321.521C224.238 319.905 224.88 318.356 226.023 317.214L224.486 315.675ZM222.062 321.52H219.887V376.153H222.062H224.237V321.52H222.062ZM222.062 376.153V373.978H204.312V376.153V378.328H222.062V376.153Z" fill="#CCDDE2"/>
<path fill-rule="evenodd" clip-rule="evenodd" d="M215.162 213.72C215.171 211.451 217.009 209.614 219.278 209.608H295.828C296.922 209.603 297.973 210.034 298.748 210.805C299.524 211.577 299.96 212.626 299.96 213.72C299.953 215.988 298.116 217.826 295.847 217.832H219.278C217.006 217.832 215.164 215.992 215.162 213.72H215.162Z" stroke="#CCDDE2" stroke-width="4.35"/>
<path d="M222.783 226.288L222.78 228.463H222.783V226.288ZM214.504 234.559H216.679L216.679 234.558L214.504 234.559ZM214.504 263.716H212.329L212.329 263.717L214.504 263.716ZM222.771 271.987L222.769 274.162H222.771V271.987ZM291.681 271.987L291.684 269.812H291.681V271.987ZM299.96 263.716H297.785V263.717L299.96 263.716ZM299.96 234.559L297.785 234.556V234.559H299.96ZM253.104 259.674H250.929L250.929 259.677L253.104 259.674ZM247.287 265.503V267.678H247.288L247.287 265.503ZM226.903 265.503L226.901 267.678H226.903V265.503ZM221.086 259.674L223.261 259.677V259.674H221.086ZM221.086 238.636H223.261L223.261 238.634L221.086 238.636ZM226.903 232.811V230.636L226.901 230.636L226.903 232.811ZM247.287 232.811V234.986H247.287L247.287 232.811ZM253.104 238.636L250.929 238.633V238.636H253.104ZM293.167 259.702H290.992V259.705L293.167 259.702ZM287.349 265.531V267.706H287.351L287.349 265.531ZM266.895 265.531L266.893 267.706H266.895V265.531ZM261.077 259.702L263.252 259.705V259.702H261.077ZM261.077 238.608H263.252L263.252 238.607L261.077 238.608ZM266.895 232.783V230.608L266.893 230.608L266.895 232.783ZM287.349 232.783L287.351 230.608H287.349V232.783ZM293.167 238.608L290.992 238.607V238.608H293.167ZM291.681 226.288V224.113H222.783V226.288V228.463H291.681V226.288ZM222.783 226.288L222.786 224.113C220.013 224.109 217.353 225.208 215.391 227.168L216.928 228.706L218.465 230.245C219.61 229.102 221.162 228.46 222.78 228.463L222.783 226.288ZM216.928 228.706L215.391 227.168C213.429 229.127 212.328 231.787 212.329 234.56L214.504 234.559L216.679 234.558C216.678 232.94 217.321 231.388 218.465 230.245L216.928 228.706ZM214.504 234.559H212.329V263.716H214.504H216.679V234.559H214.504ZM214.504 263.716L212.329 263.717C212.332 269.483 217.003 274.157 222.769 274.162L222.771 271.987L222.773 269.812C219.408 269.809 216.681 267.08 216.679 263.715L214.504 263.716ZM222.771 271.987V274.162H291.681V271.987V269.812H222.771V271.987ZM291.681 271.987L291.678 274.162C294.451 274.166 297.111 273.067 299.073 271.107L297.536 269.568L295.998 268.03C294.854 269.173 293.302 269.814 291.684 269.812L291.681 271.987ZM297.536 269.568L299.073 271.107C301.035 269.147 302.136 266.488 302.135 263.715L299.96 263.716L297.785 263.717C297.786 265.335 297.143 266.886 295.998 268.03L297.536 269.568ZM299.96 263.716H302.135V234.559H299.96H297.785V263.716H299.96ZM299.96 234.559L302.135 234.562C302.139 231.788 301.038 229.126 299.075 227.165L297.538 228.704L296.001 230.243C297.145 231.386 297.787 232.938 297.785 234.556L299.96 234.559ZM297.538 228.704L299.075 227.165C297.113 225.205 294.45 224.106 291.676 224.113L291.681 226.288L291.686 228.463C293.304 228.459 294.856 229.099 296.001 230.243L297.538 228.704ZM253.104 259.674L250.929 259.677C250.93 260.645 250.547 261.573 249.864 262.258L251.403 263.794L252.943 265.331C254.442 263.829 255.282 261.793 255.279 259.671L253.104 259.674ZM251.403 263.794L249.864 262.258C249.18 262.943 248.253 263.328 247.285 263.328L247.287 265.503L247.288 267.678C249.41 267.677 251.444 266.832 252.943 265.331L251.403 263.794ZM247.287 265.503V263.328H226.903V265.503V267.678H247.287V265.503ZM226.903 265.503L226.904 263.328C225.937 263.328 225.009 262.943 224.326 262.258L222.786 263.794L221.247 265.331C222.746 266.832 224.78 267.677 226.901 267.678L226.903 265.503ZM222.786 263.794L224.326 262.258C223.643 261.573 223.259 260.645 223.261 259.677L221.086 259.674L218.911 259.671C218.908 261.793 219.748 263.829 221.247 265.331L222.786 263.794ZM221.086 259.674H223.261V238.636H221.086H218.911V259.674H221.086ZM221.086 238.636L223.261 238.634C223.26 237.667 223.643 236.739 224.327 236.055L222.788 234.518L221.249 232.981C219.75 234.482 218.909 236.516 218.911 238.637L221.086 238.636ZM222.788 234.518L224.327 236.055C225.01 235.371 225.937 234.986 226.904 234.986L226.903 232.811L226.901 230.636C224.781 230.637 222.747 231.481 221.249 232.981L222.788 234.518ZM226.903 232.811V234.986H247.287V232.811V230.636H226.903V232.811ZM247.287 232.811L247.287 234.986C248.254 234.986 249.181 235.37 249.864 236.054L251.403 234.517L252.942 232.98C251.443 231.479 249.408 230.636 247.287 230.636V232.811ZM251.403 234.517L249.864 236.054C250.547 236.738 250.93 237.666 250.929 238.633L253.104 238.636L255.279 238.639C255.282 236.517 254.441 234.481 252.942 232.98L251.403 234.517ZM253.104 238.636H250.929V259.674H253.104H255.279V238.636H253.104ZM293.167 259.702L290.992 259.705C290.993 260.672 290.61 261.6 289.926 262.285L291.466 263.822L293.005 265.358C294.504 263.856 295.344 261.82 295.342 259.699L293.167 259.702ZM291.466 263.822L289.926 262.285C289.243 262.97 288.315 263.355 287.348 263.356L287.349 265.531L287.351 267.706C289.472 267.704 291.507 266.86 293.005 265.358L291.466 263.822ZM287.349 265.531V263.356H266.895V265.531V267.706H287.349V265.531ZM266.895 265.531L266.896 263.356C265.929 263.355 265.001 262.97 264.318 262.285L262.778 263.822L261.239 265.358C262.737 266.86 264.772 267.704 266.893 267.706L266.895 265.531ZM262.778 263.822L264.318 262.285C263.634 261.6 263.251 260.672 263.252 259.705L261.077 259.702L258.902 259.699C258.9 261.82 259.74 263.856 261.239 265.358L262.778 263.822ZM261.077 259.702H263.252V238.608H261.077H258.902V259.702H261.077ZM261.077 238.608L263.252 238.607C263.252 237.64 263.635 236.712 264.319 236.028L262.78 234.491L261.241 232.954C259.742 234.455 258.901 236.489 258.902 238.61L261.077 238.608ZM262.78 234.491L264.319 236.028C265.002 235.344 265.929 234.959 266.896 234.958L266.895 232.783L266.893 230.608C264.773 230.61 262.739 231.453 261.241 232.954L262.78 234.491ZM266.895 232.783V234.958H287.349V232.783V230.608H266.895V232.783ZM287.349 232.783L287.348 234.958C288.315 234.959 289.242 235.344 289.925 236.028L291.464 234.491L293.003 232.954C291.505 231.453 289.471 230.61 287.351 230.608L287.349 232.783ZM291.464 234.491L289.925 236.028C290.609 236.712 290.992 237.64 290.992 238.607L293.167 238.608L295.342 238.61C295.343 236.489 294.502 234.455 293.003 232.954L291.464 234.491ZM293.167 238.608H290.992V259.702H293.167H295.342V238.608H293.167Z" fill="#CCDDE2"/>
<path fill-rule="evenodd" clip-rule="evenodd" d="M299.96 213.72C299.953 215.988 298.116 217.826 295.847 217.832H219.278C217.006 217.832 215.164 215.992 215.162 213.72C215.171 211.451 217.009 209.614 219.278 209.608H295.828C296.922 209.603 297.973 210.034 298.748 210.805C299.524 211.577 299.96 212.626 299.96 213.72V213.72Z" stroke="#CCDDE2" stroke-width="4.35"/>
<rect x="228.016" y="319.595" width="58.8588" height="4.7432" rx="2.3716" stroke="#CCDDE2" stroke-width="4.35"/>
<rect x="228.016" y="329.387" width="58.8588" height="4.7432" rx="2.3716" stroke="#CCDDE2" stroke-width="4.35"/>
<rect x="228.016" y="339.18" width="58.8588" height="4.7432" rx="2.3716" stroke="#CCDDE2" stroke-width="4.35"/>
<rect x="228.016" y="348.972" width="58.8588" height="4.7432" rx="2.3716" stroke="#CCDDE2" stroke-width="4.35"/>
<rect x="228.016" y="358.76" width="58.8588" height="4.7432" rx="2.3716" stroke="#CCDDE2" stroke-width="4.35"/>
<path d="M195.358 182.082H329.16C334.964 182.082 339.669 186.787 339.669 192.591V198.146H187.123" stroke="#CCDDE2" stroke-width="4.35"/>
<rect x="231.019" y="121.69" width="97.5962" height="40.1369" rx="20.0684" stroke="#CCDDE2" stroke-width="4.35"/>
<path fill-rule="evenodd" clip-rule="evenodd" d="M269.074 149.518C273.327 149.518 277.447 146.861 277.447 141.051C277.447 136.284 274.202 132.945 269.337 132.945C264.245 132.945 260.87 136.222 260.87 141.345C260.87 146.469 264.437 149.518 269.074 149.518ZM269.207 145.983C267.099 145.983 265.962 143.94 265.962 141.216V141.2C265.962 138.879 266.84 136.445 269.207 136.445C271.434 136.445 272.343 138.864 272.343 141.216C272.343 144.07 271.12 145.983 269.207 145.983Z" fill="#D7E8F0"/>
<path fill-rule="evenodd" clip-rule="evenodd" d="M282.739 135.814C282.779 136.661 282.779 137.613 282.779 138.621V153.121C282.779 154.483 283.883 155.587 285.244 155.587C286.606 155.587 287.71 154.483 287.71 153.121V147.703H287.773C288.486 148.734 289.98 149.518 291.893 149.518C295.428 149.518 299.098 146.794 299.098 141.02C299.098 135.959 295.981 132.945 292.512 132.945C290.207 132.945 288.4 133.819 287.224 135.504H287.157L286.93 133.301H285.205C284.542 133.299 283.907 133.565 283.442 134.038C282.978 134.511 282.725 135.151 282.739 135.814ZM287.808 143.387C287.737 143.046 287.705 142.697 287.71 142.349V140.193C287.708 139.898 287.741 139.605 287.808 139.319C288.086 137.899 289.31 136.86 290.756 136.818C292.963 136.818 294.1 138.734 294.1 141.263C294.1 143.956 292.833 145.739 290.693 145.739C289.3 145.725 288.103 144.749 287.808 143.387Z" fill="#D7E8F0"/>
<path d="M282.739 161.827V182.082" stroke="#CCDDE2" stroke-width="4.35"/>
</g>
<path d="M65.0772 351.845H105.528V356.157C105.629 363.453 101.795 370.238 95.4933 373.916C89.1915 377.593 81.3978 377.593 75.0959 373.916C68.794 370.238 64.96 363.453 65.0615 356.157V351.845H65.0772Z" fill="#D7E8F0"/>
<path d="M240.004 118.327L239.937 131.823V365.553C239.937 378.607 229.353 376.137 216.299 376.118L183.015 376.094H88.7896C98.182 374.471 105.16 366.501 105.528 356.977C105.551 356.706 105.551 356.432 105.551 356.161C105.557 356.059 105.557 355.957 105.551 355.855L105.257 116.39C104.641 109.923 100.989 104.132 95.4183 100.789C92.3465 99.0099 88.8583 98.0767 85.3086 98.084H219.765C230.942 98.0884 240.001 107.149 240.004 118.327Z" fill="#73CBAE"/>
<path d="M105.528 150.428H65.0777V118.327C64.9761 111.031 68.8101 104.246 75.112 100.568C81.4139 96.8909 89.2076 96.8909 95.5094 100.568C101.811 104.246 105.645 111.031 105.544 118.327V155.12" fill="#D7E8F0"/>
<rect x="178.922" y="327.694" width="64.8133" height="157.247" rx="19.8" transform="rotate(-180 178.922 327.694)" fill="#73CBAE"/>
<path d="M160.882 157.813H184.077" stroke="white" stroke-width="4.35"/>
<path d="M128.193 187.068H164.293" stroke="white" stroke-width="4.35"/>
<path d="M128.193 199.745H164.293" stroke="white" stroke-width="4.35"/>
<path d="M128.193 212.423H164.293" stroke="white" stroke-width="4.35"/>
<path d="M128.193 225.1H164.293" stroke="white" stroke-width="4.35"/>
<path d="M128.193 237.773H164.293" stroke="white" stroke-width="4.35"/>
<path d="M128.193 250.451H164.293" stroke="white" stroke-width="4.35"/>
<path d="M128.193 292.802H164.293" stroke="white" stroke-width="4.35"/>
<path d="M128.193 298.714H164.293" stroke="white" stroke-width="4.35"/>
<path d="M128.193 304.621H164.293" stroke="white" stroke-width="4.35"/>
<path d="M160.882 142.921H180.333" stroke="white" stroke-width="4.35"/>
<path d="M160.882 150.369H183.05" stroke="white" stroke-width="4.35"/>
<path d="M160.882 135.477H187.123" stroke="white" stroke-width="4.35"/>
<rect x="150.945" y="160.279" width="27.2636" height="27.2636" rx="8.95" transform="rotate(-180 150.945 160.279)" fill="#73CBAE"/>
<circle cx="137.315" cy="140.487" r="4.00624" fill="#D7E8F0"/>
<path d="M147.472 156.81C147.472 151.207 142.93 146.665 137.327 146.665C131.724 146.665 127.182 151.207 127.182 156.81H147.472Z" fill="#D7E8F0"/>
<path d="M136.324 338.713L133.36 344.719C133.2 345.045 132.889 345.271 132.529 345.322L125.912 346.287C125.491 346.342 125.139 346.632 125.006 347.035C124.872 347.437 124.98 347.881 125.285 348.176L130.083 352.853C130.345 353.105 130.464 353.471 130.4 353.829L129.268 360.434C129.192 360.85 129.36 361.273 129.701 361.524C130.042 361.774 130.497 361.808 130.871 361.61L136.802 358.474C137.123 358.305 137.507 358.305 137.829 358.474L143.76 361.61C144.134 361.809 144.588 361.775 144.929 361.525C145.27 361.274 145.437 360.85 145.359 360.434L144.23 353.829C144.167 353.471 144.286 353.105 144.548 352.853L149.346 348.176C149.647 347.882 149.755 347.442 149.625 347.042C149.494 346.642 149.147 346.35 148.73 346.291L142.102 345.326C141.742 345.275 141.431 345.049 141.271 344.723L138.303 338.717C138.119 338.339 137.735 338.098 137.315 338.097C136.894 338.096 136.509 338.335 136.324 338.713Z" fill="#D7E8F0"/>
<path d="M181.188 353.813H158.664" stroke="#CCDDE2" stroke-width="4.35"/>
<path d="M271.979 367.039H262.595C259.535 367.037 256.647 365.621 254.773 363.203C252.898 360.785 252.246 357.636 253.006 354.672L256.346 341.736H290.129L269.968 279.302H274.566C276.497 279.306 278.39 278.77 280.031 277.753C280.606 277.405 281.143 276.997 281.634 276.538C281.759 276.425 281.885 276.303 281.999 276.189C282.234 275.95 282.449 275.699 282.665 275.448C282.869 275.19 283.057 274.927 283.257 274.664C284.712 272.489 285.3 269.847 284.903 267.26C284.245 262.921 283.578 258.692 282.904 254.571C262.105 126.606 238.059 99.4012 226.064 93.6192L227.123 80.0443C228.941 79.3932 230.469 78.118 231.435 76.4457C231.709 76.5241 231.991 76.626 232.289 76.7397C234.821 77.6609 237.887 78.2371 240.49 77.2493C243.692 76.0341 241.807 72.6825 241.591 70.2639C241.521 69.6955 240.988 66.1283 242.089 66.1204H244.519C244.816 66.1365 245.096 65.9835 245.243 65.7254C245.39 65.4672 245.379 65.1481 245.213 64.9013C243.039 61.1679 241.968 56.8944 242.124 52.5768C241.991 52.7694 241.843 52.9516 241.681 53.1217C241.83 52.9414 241.975 52.7611 242.113 52.5768C242.191 52.4631 242.273 52.3573 242.352 52.2436C242.43 52.1299 242.501 52.0084 242.579 51.883C242.726 51.6303 242.857 51.3684 242.971 51.099C243.217 50.5685 243.404 50.0124 243.528 49.4408C243.888 47.8878 243.798 46.2642 243.269 44.7603C243.269 44.7603 243.269 44.7368 243.269 44.7251C243.242 44.6233 243.204 44.5247 243.155 44.4311C243.049 44.1181 242.918 43.8141 242.763 43.5216C242.673 43.3531 242.583 43.1806 242.481 43.012C242.404 42.8772 242.32 42.7464 242.23 42.62C242.05 42.3574 241.87 42.1104 241.674 41.8595C241.382 41.4783 241.063 41.1181 240.721 40.7815C238.369 38.4295 235.072 36.7243 232.132 35.6855C231.838 35.5836 231.529 35.4817 231.235 35.3915C230.941 35.3014 230.756 35.2426 230.521 35.1759C229.953 35.0074 229.384 34.8584 228.804 34.733C228.498 34.6663 228.193 34.5958 227.883 34.5527C227.491 34.4703 227.099 34.4037 226.668 34.3488C226.362 34.3018 226.056 34.2665 225.747 34.2351C225.437 34.2038 225.123 34.1763 224.818 34.1528H224.739C219.388 33.8 214.026 35.1289 209.902 38.8999C209.686 39.1077 209.471 39.2919 209.255 39.5389C209.357 39.3899 209.471 39.2292 209.561 39.0724C209.864 38.5922 210.126 38.0874 210.345 37.5632C210.447 37.3295 210.534 37.09 210.608 36.8459C210.686 36.6067 210.753 36.3559 210.823 36.1089C211.015 35.3397 211.109 34.5496 211.105 33.7569C211.106 32.6509 210.922 31.5526 210.561 30.5072C210.506 30.3583 210.459 30.2132 210.404 30.076C210.255 29.6988 210.083 29.331 209.89 28.9745C209.654 28.5539 209.392 28.1481 209.106 27.7593C207.224 25.2147 204.243 23.7171 201.078 23.7256C200.827 23.7256 200.588 23.7256 200.337 23.7609C200.06 23.7729 199.783 23.803 199.51 23.8511C194.345 24.6755 190.681 29.3296 191.091 34.5434C191.501 39.7573 195.848 43.7812 201.078 43.7882C202.763 43.7729 204.416 43.3262 205.88 42.4907H205.904C206.231 42.3101 206.549 42.1125 206.856 41.8987C206.928 41.8544 206.997 41.806 207.064 41.7537C207.299 41.5695 207.515 41.3891 207.734 41.1971C203.422 46.6263 201.905 54.1331 203.312 60.8794C203.823 63.2877 204.538 65.6481 205.449 67.9354C206.413 70.3775 208.154 72.1494 208.471 74.8424C208.71 76.92 204.551 88.7114 203.222 93.8936C200.588 96.2221 198.338 99.5031 196.558 103.458C196.641 103.231 196.731 103.015 196.809 102.788C196.594 103.239 196.39 103.705 196.182 104.184C195.75 105.182 195.372 106.203 195.049 107.241C194.228 109.822 193.639 112.47 193.289 115.156C193.164 116.053 193.05 116.951 192.96 117.861L192.924 118.253C192.922 118.321 192.914 118.389 192.901 118.456C192.858 118.931 192.823 119.409 192.787 119.887C192.74 120.487 192.697 121.091 192.674 121.694C192.65 122.298 192.619 122.827 192.583 123.407V123.521C192.548 124.18 192.525 124.838 192.517 125.508V125.748C192.458 128.123 192.47 130.518 192.517 132.905C192.572 136.688 192.685 140.459 192.685 144.093V145.751C192.685 145.751 192.685 146.853 192.662 147.386C192.638 147.919 192.638 148.421 192.619 148.923C192.619 149.491 192.572 150.048 192.548 150.604V150.761C192.552 150.818 192.552 150.876 192.548 150.934V151.012C192.525 151.455 192.489 151.898 192.454 152.341C191.219 169.38 188.501 186.279 184.332 202.846C178.597 225.335 169.408 246.883 164.806 269.639C163.717 274.99 163.093 281.031 164.704 286.052C164.876 286.597 165.078 287.132 165.308 287.655C165.422 287.914 165.543 288.177 165.669 288.439C165.873 288.831 166.092 289.188 166.308 289.553C166.523 289.917 166.782 290.266 167.045 290.607C167.213 290.834 167.409 291.05 167.601 291.277C167.793 291.505 167.993 291.709 168.205 291.912C171.059 294.731 174.979 296.005 178.977 296.742L161.87 320.223L172.411 325.287L173.172 325.652L173.023 325.879L172.58 325.664L151.412 353.257L186.845 370.716C187.56 371.079 188.362 371.236 189.161 371.171C191.01 371.307 192.756 370.302 193.567 368.635C193.884 368.008 194.048 367.315 194.046 366.612C194.043 364.87 193.052 363.281 191.49 362.512L183.63 358.639C180.885 357.288 178.92 354.743 178.307 351.746C177.693 348.748 178.501 345.636 180.494 343.315L187.923 333.978L189.761 333.625L211.811 344.209L226.499 326.51V341.767H238.745L231.87 376.173H271.979C274.501 376.173 276.546 374.128 276.546 371.606C276.546 369.084 274.501 367.039 271.979 367.039Z" fill="white"/>
<path d="M231.16 112.114C236.93 137.386 239.643 174.932 240.893 208.938C239.631 174.959 236.907 137.496 231.16 112.266C228.263 99.6597 224.159 93.6739 219.333 91.2866C219.776 91.4669 220.231 91.6786 220.686 91.9021C220.71 91.9202 220.736 91.9347 220.764 91.9452C224.978 94.7793 228.557 100.753 231.16 112.114Z" fill="#2E2E2E"/>
<path d="M241.803 249.141C241.599 248.871 241.411 248.675 241.411 248.675C241.565 248.211 241.687 247.736 241.775 247.256C241.803 247.891 241.803 248.518 241.803 249.141Z" fill="#2E2E2E"/>
<path d="M232.645 72.2082C232.646 75.5565 230.551 78.5473 227.404 79.6915C226.537 80.0142 225.618 80.1776 224.692 80.1736C224.211 80.1764 223.732 80.1291 223.261 80.0325C220.634 78.914 218.809 76.4735 218.477 73.6378C218.146 70.8022 219.36 68.0065 221.658 66.3125C223.023 65.2882 224.686 64.7377 226.393 64.7445C226.874 64.7417 227.353 64.789 227.824 64.8856C230.753 66.1403 232.65 69.0219 232.645 72.2082Z" fill="black"/>
<path d="M241.881 259.706C241.881 259.184 241.881 258.651 241.858 258.114C244.233 257.797 241.881 259.192 241.881 259.706Z" fill="#73CBAE"/>
<path fill-rule="evenodd" clip-rule="evenodd" d="M259.478 246.538C260.113 253.696 260.795 260.854 261.681 267.965C261.794 268.872 261.932 269.835 262.075 270.837C263.168 278.491 264.589 288.439 257.91 293.437C256.275 294.684 254.194 295.095 252.195 295.468C229.209 299.719 205.694 300.295 182.528 297.173C177.393 296.495 171.929 295.436 168.248 291.791C162.662 286.279 163.273 277.205 164.841 269.525C167.464 256.564 171.576 243.986 175.69 231.405C178.795 221.909 181.9 212.412 184.367 202.744C188.537 186.176 191.254 169.275 192.489 152.235C192.524 151.714 192.56 151.177 192.591 150.643V258.016C191.981 258.45 191.614 259.149 191.603 259.898V284.672H192.591V287.542C192.59 288.004 192.773 288.448 193.099 288.776C193.426 289.104 193.869 289.289 194.331 289.29H240.027C240.981 289.294 241.76 288.53 241.775 287.577C241.834 283.998 241.948 273.559 241.924 261.129V259.745V257.985C241.744 258.008 241.528 258.04 241.289 258.087C240.87 257.677 240.307 257.449 239.721 257.452C239.679 257.447 239.637 257.447 239.596 257.452H234.108L232.677 250.945L244.437 251.105C244.437 251.105 243.563 246.013 242.234 237.891C242.132 236.088 241.916 234.041 241.564 231.748C241.575 232.13 241.584 232.508 241.593 232.885C241.602 233.272 241.61 233.657 241.622 234.041C237.624 209.267 230.787 163.717 230.254 140.177C230.228 139.034 230.203 137.911 230.179 136.808C229.491 105.729 229.161 90.8007 212.16 89.9148H211.078C212.344 89.7305 213.63 89.7305 214.896 89.9148H214.919C216.403 90.1247 217.853 90.5293 219.231 91.1183C219.245 91.1124 219.261 91.1124 219.274 91.1183L219.345 91.1496C219.808 91.3816 220.256 91.6435 220.686 91.9336C220.231 91.7102 219.776 91.4985 219.333 91.3182C224.159 93.7055 228.263 99.6913 231.16 112.298C234.911 128.848 237.377 150.647 239 173.289C237.432 150.589 234.943 128.723 231.16 112.137C228.557 100.777 224.978 94.8031 220.764 91.9728C223.093 93.1599 225.279 94.6064 227.283 96.2848C238.984 106.124 243.324 121.177 245.676 135.681C250.638 166.327 254.378 197.213 257.718 228.079C258.388 234.221 258.933 240.379 259.478 246.537L259.478 246.538ZM212.073 257.001L223.41 257.432H193.943C193.467 257.433 193.003 257.581 192.614 257.855V150.487C192.851 146.02 192.761 141.238 192.67 136.367C192.65 135.339 192.631 134.308 192.614 133.274V125.234C192.654 122.78 192.779 120.361 193.006 117.974C193.315 114.296 194.023 110.663 195.119 107.139C195.442 106.1 195.821 105.079 196.256 104.082C196.46 103.603 196.664 103.137 196.879 102.686C193.414 111.91 193.018 123.474 193.253 127.868C193.253 127.868 196.389 203.469 211.285 250.117H210.976L212.073 257.001Z" fill="#2E2E2E"/>
<path d="M231.16 112.114C236.93 137.386 239.643 174.932 240.893 208.938C239.631 174.959 236.906 137.496 231.16 112.267C228.263 99.66 224.159 93.6741 219.333 91.2869C219.776 91.4672 220.231 91.6789 220.685 91.9023C220.709 91.9204 220.736 91.935 220.764 91.9454C224.978 94.7796 228.557 100.754 231.16 112.114Z" fill="#2E2E2E"/>
<path d="M241.803 249.141C241.599 248.871 241.411 248.675 241.411 248.675C241.565 248.211 241.687 247.737 241.775 247.256C241.803 247.891 241.803 248.518 241.803 249.141Z" fill="#2E2E2E"/>
<path d="M274.641 279.212H270.039L259.474 246.538C258.929 240.38 258.384 234.222 257.714 228.079C254.374 197.213 250.638 166.327 245.672 135.681C243.32 121.177 238.984 106.124 227.283 96.2848C225.279 94.6055 223.091 93.1589 220.76 91.9728C220.76 91.9728 222.763 91.8826 226.17 93.5408C238.541 99.507 263.77 128.311 285.001 267.197C285.445 270.21 284.557 273.267 282.568 275.573C280.58 277.88 277.686 279.208 274.641 279.212Z" fill="#73CBAE"/>
<path d="M276.016 371.516C276.015 372.729 275.532 373.892 274.674 374.748C273.815 375.605 272.651 376.085 271.438 376.083H231.94L238.808 341.642H256.448L253.108 354.578C252.348 357.542 253 360.69 254.874 363.109C256.749 365.527 259.636 366.943 262.696 366.945H271.465C273.989 366.945 276.037 368.988 276.044 371.512L276.016 371.516Z" fill="#73CBAE"/>
<path d="M193.477 366.482C193.48 367.185 193.316 367.878 192.999 368.505C192.468 369.595 191.524 370.428 190.377 370.819C189.229 371.21 187.973 371.126 186.887 370.587L151.458 353.127L172.626 325.534L188.538 333.178L179.914 343.186C177.921 345.507 177.113 348.619 177.726 351.616C178.34 354.613 180.305 357.158 183.05 358.509L190.89 362.394C192.462 363.151 193.466 364.738 193.477 366.482Z" fill="#73CBAE"/>
<path d="M191.827 284.076C191.827 284.076 192.583 285.252 192.583 287.514C192.583 289.776 199.608 289.376 200.537 289.376L236.699 289.282C236.699 289.282 241.795 290.595 241.795 285.495C241.795 280.395 243.363 259.255 241.219 258.224C239.075 257.193 225.805 258.016 225.805 258.016L195.798 257.585C195.798 257.585 191.372 254.841 191.596 263.343C191.819 271.846 191.827 284.076 191.827 284.076Z" fill="#D7E8F0"/>
<path d="M243.63 49.3074C243.382 50.4407 242.898 51.5092 242.211 52.4434C241.052 53.9601 239.522 55.1534 237.769 55.9087C233.724 57.7824 228.499 58.0686 224.833 57.2022C223.855 56.9577 222.854 56.8106 221.846 56.7632C220.67 56.7632 219.553 56.9788 218.691 57.7707C216.1 60.1579 217.475 63.2351 219.518 65.5754C217.409 67.1267 216.167 69.5905 216.174 72.208C215.906 73.0084 215.451 73.7329 214.845 74.3209C214.504 74.3209 213.669 75.5243 213.379 75.4969C210.996 75.0774 210.031 76.2574 209.247 74.3209C207.621 70.1594 206.6 65.7857 206.217 61.3339C205.712 56.1948 205.512 50.4128 207.785 45.6539C209.39 42.4637 211.853 39.784 214.896 37.9158C217.928 35.9395 221.333 34.6054 224.9 33.9958C227.393 34.1721 229.85 34.6891 232.203 35.5325C237.973 37.5826 245.174 42.1495 243.63 49.3074Z" fill="#73CBAE"/>
<path d="M211.164 33.6314C211.168 35.7031 210.525 37.7244 209.325 39.4134C208.789 39.9468 208.285 40.5123 207.816 41.1068C207.259 41.6089 206.645 42.0431 205.986 42.4004C201.18 43.1564 196.525 40.3524 194.947 35.7507C193.369 31.149 195.322 26.0784 199.58 23.7255C200.099 23.6437 200.623 23.6018 201.148 23.6001C206.682 23.6087 211.164 28.0974 211.164 33.6314Z" fill="#73CBAE"/>
<path fill-rule="evenodd" clip-rule="evenodd" d="M195.096 107.292C190.702 120.965 193.528 138.299 192.489 152.231C191.255 169.273 188.536 186.175 184.363 202.744C178.628 225.217 169.424 246.773 164.838 269.517C163.27 277.204 162.658 286.279 168.24 291.791C171.929 295.432 177.389 296.495 182.525 297.173C205.695 300.296 229.214 299.718 252.203 295.46C254.21 295.087 256.287 294.652 257.922 293.429C265.46 287.788 262.657 275.789 261.673 267.949C260.015 254.708 259.149 241.329 257.714 228.055C254.374 197.193 250.639 166.3 245.672 135.653C243.32 121.149 238.98 106.1 227.279 96.265C225.275 94.5854 223.087 93.1388 220.756 91.953C209.898 86.4062 201.156 92.6469 196.233 104.242C195.81 105.234 195.433 106.253 195.096 107.292V107.292Z" stroke="black" stroke-width="4.35"/>
<path d="M192.987 118.131C192.811 120.236 196.97 189.338 205.461 226.883C207.46 235.748 209.21 243.674 210.71 250.662C222.862 250.537 244.633 251.085 244.633 251.085C244.633 251.085 229.847 162.964 230.267 131.255" stroke="black" stroke-width="4.35"/>
<path d="M192.584 125.391V133.274V150.902V258.016" stroke="black" stroke-width="4.35"/>
<path d="M241.874 259.713C241.913 272.747 241.783 283.833 241.725 287.545C241.714 288.498 240.936 289.263 239.984 289.258H194.328C193.365 289.256 192.586 288.477 192.583 287.514V284.672" stroke="black" stroke-width="4.35"/>
<path d="M214.873 90.0361C216.386 90.1731 217.862 90.5807 219.232 91.2396C219.232 91.2396 219.251 91.2396 219.259 91.2396C224.116 93.5916 228.252 99.5853 231.148 112.255C240.11 151.537 241.732 220.447 241.874 259.694" stroke="black" stroke-width="4.35"/>
<path d="M239.612 257.589H193.92C192.642 257.591 191.606 258.627 191.604 259.906V284.672H237.468V261.576" stroke="black" stroke-width="4.35"/>
<path d="M237.448 261.591V259.753C237.463 258.545 238.451 257.576 239.659 257.585C240.245 257.584 240.808 257.813 241.227 258.224C241.63 258.616 241.863 259.151 241.873 259.713" stroke="black" stroke-width="4.35"/>
<path d="M241.881 261.097H237.448" stroke="black" stroke-width="4.35"/>
<path d="M210.709 250.662L212.152 257.585H233.571L232.199 250.878" stroke="black" stroke-width="4.35"/>
<path d="M179.013 296.62L161.914 320.097L211.858 344.091L226.547 326.385" stroke="black" stroke-width="4.35"/>
<path d="M252.203 295.456L226.546 326.385V341.641H290.203L270.039 279.212L259.47 246.531" stroke="black" stroke-width="4.35"/>
<path d="M239.404 341.637L232.536 376.086H272.054C274.576 376.084 276.62 374.039 276.62 371.516C276.62 368.993 274.576 366.947 272.054 366.945H263.277C260.219 366.942 257.334 365.526 255.462 363.108C253.59 360.69 252.941 357.542 253.704 354.581L257.04 341.645" stroke="black" stroke-width="4.35"/>
<path d="M173.446 325.252L152.066 353.123L187.495 370.591C189.761 371.706 192.502 370.774 193.618 368.509C194.733 366.245 193.801 363.505 191.537 362.39L183.669 358.509C180.923 357.158 178.957 354.613 178.344 351.615C177.73 348.616 178.539 345.503 180.533 343.182L189.252 333.049" stroke="black" stroke-width="4.35"/>
<path d="M220.776 91.9492C220.776 91.9492 257.942 89.9892 285.017 267.154C285.477 270.172 284.596 273.241 282.606 275.557C280.616 277.872 277.714 279.204 274.661 279.204H270.035" stroke="black" stroke-width="4.35"/>
<path d="M203.297 93.7956C204.63 88.6173 208.785 76.8141 208.546 74.7405C208.232 72.0474 206.5 70.2717 205.531 67.8334C204.619 65.5469 203.904 63.1862 203.395 60.7774C201.768 52.9923 204.022 44.2076 209.984 38.7627C216.049 33.2198 224.763 32.9062 232.207 35.5326C237.985 37.5671 245.182 42.13 243.634 49.2918C242.011 56.8025 231.129 58.6724 224.818 57.2141C222.858 56.7633 220.302 56.2812 218.675 57.7825C216.092 60.162 217.464 63.2353 219.498 65.5755" stroke="black" stroke-width="4.35"/>
<path d="M231.533 76.3318C231.807 76.4102 232.089 76.5122 232.383 76.6258C234.92 77.547 237.985 78.1233 240.588 77.1354C243.791 75.9202 241.905 72.5686 241.689 70.15C241.619 69.5816 241.086 66.0144 242.187 66.0066H244.618C244.914 66.0226 245.195 65.8697 245.341 65.6115C245.488 65.3533 245.477 65.0343 245.312 64.7874C243.133 61.0486 242.062 56.7676 242.223 52.4434" stroke="black" stroke-width="4.35"/>
<circle cx="224.414" cy="72.2081" r="8.232" stroke="black" stroke-width="4.35"/>
<circle cx="201.149" cy="33.6314" r="10.0274" stroke="black" stroke-width="4.35"/>
<path d="M227.22 79.9382L226.174 93.5054" stroke="black" stroke-width="4.35"/>
<path d="M208.546 74.7403C208.546 74.7403 214.222 77.5353 216.182 72.208" stroke="black" stroke-width="4.35"/>
<path d="M206.033 53.8271C206.033 54.5445 205.998 55.2031 205.962 55.8263C205.974 55.156 205.986 54.4975 206.033 53.8271V53.8271Z" fill="#73CBAE"/>
<path d="M85.3125 376.082H317.443" stroke="black" stroke-width="4.35"/>
</svg>
