<svg width="26" height="30" viewBox="0 0 26 30" fill="none" xmlns="http://www.w3.org/2000/svg">
<path d="M25.8949 22.1353C25.1585 23.6843 24.8046 24.3762 23.8684 25.7382C22.5577 27.6414 20.7146 30.0143 18.4896 29.9906C16.5085 29.9736 16.0201 28.6656 13.3299 28.6413C10.6425 28.6069 10.0601 29.8681 8.07716 29.8129C5.85015 29.7535 4.18487 27.5585 2.9418 25.613C-0.534538 20.158 -0.80124 13.8294 1.46457 10.5059C3.06839 8.1492 5.56183 6.7916 7.88168 6.83231C10.2452 6.87379 11.7075 8.18615 13.66 8.22042C15.556 8.25369 16.7321 6.98508 19.4656 7.03305C21.5311 7.0693 23.6952 8.22327 25.2234 10.1763C20.0674 12.8631 20.7703 20.109 25.8949 22.1353ZM17.4275 4.84429C18.444 3.5958 19.2306 1.82351 18.9876 2.9997e-05C17.3646 0.0811086 15.4507 1.07433 14.3201 2.38451C13.2943 3.57932 12.4304 5.363 12.7235 7.10837C14.4926 7.19547 16.3427 6.18074 17.4275 4.84429Z" fill="black"/>
</svg>
