<svg width="26" height="26" viewBox="0 0 26 26" fill="none" xmlns="http://www.w3.org/2000/svg">
<path d="M17.3332 2.16663H8.66651C7.80456 2.16663 6.97791 2.50904 6.36842 3.11853C5.75892 3.72802 5.41651 4.55467 5.41651 5.41663V22.75C5.41575 22.9409 5.46545 23.1286 5.56057 23.2941C5.65569 23.4596 5.79286 23.597 5.95818 23.6925C6.12287 23.7875 6.30968 23.8376 6.49985 23.8376C6.69001 23.8376 6.87682 23.7875 7.04151 23.6925L12.9998 20.2475L18.9582 23.6925C19.1233 23.786 19.3101 23.8346 19.4998 23.8333C19.6896 23.8346 19.8764 23.786 20.0415 23.6925C20.2068 23.597 20.344 23.4596 20.4391 23.2941C20.5342 23.1286 20.5839 22.9409 20.5832 22.75V5.41663C20.5832 4.55467 20.2408 3.72802 19.6313 3.11853C19.0218 2.50904 18.1951 2.16663 17.3332 2.16663ZM18.4165 20.8758L13.5415 18.0591C13.3768 17.964 13.19 17.914 12.9998 17.914C12.8097 17.914 12.6229 17.964 12.4582 18.0591L7.58318 20.8758V5.41663C7.58318 5.12931 7.69732 4.85376 7.90048 4.65059C8.10364 4.44743 8.37919 4.33329 8.66651 4.33329H17.3332C17.6205 4.33329 17.896 4.44743 18.0992 4.65059C18.3024 4.85376 18.4165 5.12931 18.4165 5.41663V20.8758Z" fill="#999999"/>
</svg>
