<svg width="36" height="44" viewBox="0 0 36 44" fill="none" xmlns="http://www.w3.org/2000/svg">
<path d="M9 32.5V34C9 34.425 8.85625 34.7812 8.56875 35.0687C8.28125 35.3562 7.925 35.5 7.5 35.5H6C5.575 35.5 5.21875 35.3562 4.93125 35.0687C4.64375 34.7812 4.5 34.425 4.5 34V22L7.65 13C7.8 12.55 8.06875 12.1875 8.45625 11.9125C8.84375 11.6375 9.275 11.5 9.75 11.5H26.25C26.725 11.5 27.1562 11.6375 27.5438 11.9125C27.9313 12.1875 28.2 12.55 28.35 13L31.5 22V34C31.5 34.425 31.3563 34.7812 31.0688 35.0687C30.7813 35.3562 30.425 35.5 30 35.5H28.5C28.075 35.5 27.7188 35.3562 27.4313 35.0687C27.1438 34.7812 27 34.425 27 34V32.5H9ZM8.7 19H27.3L25.725 14.5H10.275L8.7 19ZM11.25 28C11.875 28 12.4063 27.7812 12.8438 27.3438C13.2812 26.9062 13.5 26.375 13.5 25.75C13.5 25.125 13.2812 24.5938 12.8438 24.1562C12.4063 23.7187 11.875 23.5 11.25 23.5C10.625 23.5 10.0938 23.7187 9.65625 24.1562C9.21875 24.5938 9 25.125 9 25.75C9 26.375 9.21875 26.9062 9.65625 27.3438C10.0938 27.7812 10.625 28 11.25 28ZM24.75 28C25.375 28 25.9062 27.7812 26.3438 27.3438C26.7812 26.9062 27 26.375 27 25.75C27 25.125 26.7812 24.5938 26.3438 24.1562C25.9062 23.7187 25.375 23.5 24.75 23.5C24.125 23.5 23.5938 23.7187 23.1562 24.1562C22.7188 24.5938 22.5 25.125 22.5 25.75C22.5 26.375 22.7188 26.9062 23.1562 27.3438C23.5938 27.7812 24.125 28 24.75 28ZM7.5 29.5H28.5V22H7.5V29.5Z" fill="#2ECC75"/>
</svg>
