<svg width="36" height="44" viewBox="0 0 36 44" fill="none" xmlns="http://www.w3.org/2000/svg">
<path d="M18 35.5L15.825 33.55C13.3 31.275 11.2125 29.3125 9.5625 27.6625C7.9125 26.0125 6.6 24.5312 5.625 23.2187C4.65 21.9062 3.96875 20.7 3.58125 19.6C3.19375 18.5 3 17.375 3 16.225C3 13.875 3.7875 11.9125 5.3625 10.3375C6.9375 8.7625 8.9 7.975 11.25 7.975C12.55 7.975 13.7875 8.25 14.9625 8.8C16.1375 9.35 17.15 10.125 18 11.125C18.85 10.125 19.8625 9.35 21.0375 8.8C22.2125 8.25 23.45 7.975 24.75 7.975C27.1 7.975 29.0625 8.7625 30.6375 10.3375C32.2125 11.9125 33 13.875 33 16.225C33 17.375 32.8063 18.5 32.4188 19.6C32.0313 20.7 31.35 21.9062 30.375 23.2187C29.4 24.5312 28.0875 26.0125 26.4375 27.6625C24.7875 29.3125 22.7 31.275 20.175 33.55L18 35.5ZM18 31.45C20.4 29.3 22.375 27.4562 23.925 25.9187C25.475 24.3812 26.7 23.0437 27.6 21.9062C28.5 20.7687 29.125 19.7562 29.475 18.8687C29.825 17.9812 30 17.1 30 16.225C30 14.725 29.5 13.475 28.5 12.475C27.5 11.475 26.25 10.975 24.75 10.975C23.575 10.975 22.4875 11.3062 21.4875 11.9688C20.4875 12.6312 19.8 13.475 19.425 14.5H16.575C16.2 13.475 15.5125 12.6312 14.5125 11.9688C13.5125 11.3062 12.425 10.975 11.25 10.975C9.75 10.975 8.5 11.475 7.5 12.475C6.5 13.475 6 14.725 6 16.225C6 17.1 6.175 17.9812 6.525 18.8687C6.875 19.7562 7.5 20.7687 8.4 21.9062C9.3 23.0437 10.525 24.3812 12.075 25.9187C13.625 27.4562 15.6 29.3 18 31.45Z" fill="#2ECC75"/>
</svg>
