<svg width="36" height="44" viewBox="0 0 36 44" fill="none" xmlns="http://www.w3.org/2000/svg">
<path d="M9 37C8.175 37 7.46875 36.7063 6.88125 36.1187C6.29375 35.5312 6 34.825 6 34V16C6 14.6 6.425 13.375 7.275 12.325C8.125 11.275 9.2 10.575 10.5 10.225V7H15V10H21V7H25.5V10.225C26.8 10.575 27.875 11.275 28.725 12.325C29.575 13.375 30 14.6 30 16V34C30 34.825 29.7063 35.5312 29.1188 36.1187C28.5312 36.7063 27.825 37 27 37H9ZM9 34H27V16C27 15.175 26.7063 14.4688 26.1188 13.8812C25.5312 13.2937 24.825 13 24 13H12C11.175 13 10.4688 13.2937 9.88125 13.8812C9.29375 14.4688 9 15.175 9 16V34ZM21.75 28H24.75V22H11.25V25H21.75V28Z" fill="#2ECC75"/>
</svg>
