<svg width="36" height="44" viewBox="0 0 36 44" fill="none" xmlns="http://www.w3.org/2000/svg">
<path d="M9 37C7.75 37 6.6875 36.5625 5.8125 35.6875C4.9375 34.8125 4.5 33.75 4.5 32.5V28H9V7H31.5V32.5C31.5 33.75 31.0625 34.8125 30.1875 35.6875C29.3125 36.5625 28.25 37 27 37H9ZM27 34C27.425 34 27.7812 33.8562 28.0688 33.5687C28.3563 33.2812 28.5 32.925 28.5 32.5V10H12V28H25.5V32.5C25.5 32.925 25.6438 33.2812 25.9313 33.5687C26.2188 33.8562 26.575 34 27 34ZM13.5 17.5V14.5H27V17.5H13.5ZM13.5 22V19H27V22H13.5ZM9 34H22.5V31H7.5V32.5C7.5 32.925 7.64375 33.2812 7.93125 33.5687C8.21875 33.8562 8.575 34 9 34ZM9 34C8.575 34 8.21875 34 7.93125 34C7.64375 34 7.5 34 7.5 34H22.5H9Z" fill="#2ECC75"/>
</svg>
