<svg width="36" height="44" viewBox="0 0 36 44" fill="none" xmlns="http://www.w3.org/2000/svg">
<path d="M5.70014 37H4.50014V34H5.70014C6.90014 34 8.04389 33.8687 9.13139 33.6062C10.2189 33.3437 11.4376 32.925 12.7876 32.35C13.7376 32.825 14.5689 33.2187 15.2814 33.5312C15.9939 33.8437 16.9001 34 18.0001 34C19.1001 34 20.0064 33.8437 20.7189 33.5312C21.4314 33.2187 22.2626 32.825 23.2126 32.35C24.5376 32.925 25.7564 33.3437 26.8689 33.6062C27.9814 33.8687 29.1376 34 30.3376 34H31.5001V37H30.3376C29.1126 37 27.9189 36.8875 26.7564 36.6625C25.5939 36.4375 24.4501 36.1 23.3251 35.65C22.3251 36.125 21.4126 36.4625 20.5876 36.6625C19.7626 36.8625 18.9001 36.9625 18.0001 36.9625C17.1001 36.9625 16.2439 36.8625 15.4314 36.6625C14.6189 36.4625 13.7126 36.125 12.7126 35.65C11.5876 36.1 10.4439 36.4375 9.28139 36.6625C8.11889 36.8875 6.92514 37 5.70014 37ZM18.0001 31C16.5001 31 15.1876 30.5 14.0626 29.5C12.9376 28.5 12.3751 28 12.3751 28C11.7001 28.675 10.9439 29.25 10.1064 29.725C9.26889 30.2 8.37514 30.5375 7.42514 30.7375L4.23764 20.5C4.11264 20.075 4.15014 19.6875 4.35014 19.3375C4.55014 18.9875 4.86264 18.75 5.28764 18.625L7.50014 18.025V13C7.50014 12.175 7.79389 11.4687 8.38139 10.8812C8.96889 10.2937 9.67514 10 10.5001 10H14.2501V7H21.7501V10H25.5001C26.3251 10 27.0314 10.2937 27.6189 10.8812C28.2064 11.4687 28.5001 12.175 28.5001 13V18.025L30.7126 18.625C31.1376 18.75 31.4501 18.9875 31.6501 19.3375C31.8501 19.6875 31.8876 20.075 31.7626 20.5L28.5751 30.7375C27.6251 30.5375 26.7314 30.2 25.8939 29.725C25.0564 29.25 24.3001 28.675 23.6251 28C23.6251 28 23.0626 28.5 21.9376 29.5C20.8126 30.5 19.5001 31 18.0001 31ZM18.0751 28C18.8501 28 19.5376 27.7437 20.1376 27.2312C20.7376 26.7188 21.2876 26.175 21.7876 25.6L23.5126 23.6125L25.0501 25.1875C25.3251 25.4625 25.6064 25.7188 25.8939 25.9562C26.1814 26.1937 26.4626 26.4375 26.7376 26.6875L28.4626 21.1L18.0001 18.3625L7.57514 21.1L9.30014 26.6875C9.57514 26.4375 9.85639 26.1937 10.1439 25.9562C10.4314 25.7188 10.7126 25.4625 10.9876 25.1875L12.5251 23.6125L14.2501 25.6C14.7501 26.2 15.3126 26.75 15.9376 27.25C16.5626 27.75 17.2751 28 18.0751 28ZM10.5001 17.2375L18.0001 15.25L25.5001 17.2375V13H10.5001V17.2375Z" fill="#2ECC75"/>
</svg>
