<svg width="36" height="44" viewBox="0 0 36 44" fill="none" xmlns="http://www.w3.org/2000/svg">
<path d="M12 34C11.175 34 10.4688 33.7063 9.88125 33.1187C9.29375 32.5312 9 31.825 9 31V26.5H13.5V23.125C12.625 23.075 11.7938 22.8812 11.0063 22.5437C10.2188 22.2062 9.5 21.7 8.85 21.025V19.375H7.125L2.25 14.5C3.15 13.35 4.2625 12.5375 5.5875 12.0625C6.9125 11.5875 8.25 11.35 9.6 11.35C10.275 11.35 10.9313 11.4 11.5688 11.5C12.2063 11.6 12.85 11.7875 13.5 12.0625V10H31.5V29.5C31.5 30.75 31.0625 31.8125 30.1875 32.6875C29.3125 33.5625 28.25 34 27 34H12ZM16.5 26.5H25.5V29.5C25.5 29.925 25.6438 30.2812 25.9313 30.5687C26.2188 30.8562 26.575 31 27 31C27.425 31 27.7813 30.8562 28.0688 30.5687C28.3563 30.2812 28.5 29.925 28.5 29.5V13H16.5V13.9L25.5 22.9V25H23.4L19.125 20.725L18.825 21.025C18.475 21.375 18.1063 21.6875 17.7188 21.9625C17.3313 22.2375 16.925 22.45 16.5 22.6V26.5ZM8.4 16.375H11.85V19.6C12.15 19.8 12.4625 19.9375 12.7875 20.0125C13.1125 20.0875 13.45 20.125 13.8 20.125C14.375 20.125 14.8938 20.0375 15.3563 19.8625C15.8188 19.6875 16.275 19.375 16.725 18.925L17.025 18.625L14.925 16.525C14.2 15.8 13.3875 15.2562 12.4875 14.8937C11.5875 14.5312 10.625 14.35 9.6 14.35C9.1 14.35 8.625 14.3875 8.175 14.4625C7.725 14.5375 7.275 14.65 6.825 14.8L8.4 16.375ZM22.5 29.5H12V31H22.725C22.65 30.775 22.5938 30.5375 22.5563 30.2875C22.5188 30.0375 22.5 29.775 22.5 29.5ZM12 31C12 30.775 12 30.5375 12 30.2875C12 30.0375 12 29.775 12 29.5C12 29.75 12 30 12 30.25C12 30.5 12 30.75 12 31Z" fill="#2ECC75"/>
</svg>
