<svg width="36" height="44" viewBox="0 0 36 44" fill="none" xmlns="http://www.w3.org/2000/svg">
<path d="M6 35.5C5.175 35.5 4.46875 35.2063 3.88125 34.6187C3.29375 34.0312 3 33.325 3 32.5V16C3 15.175 3.29375 14.4688 3.88125 13.8812C4.46875 13.2937 5.175 13 6 13H12V10C12 9.175 12.2938 8.46875 12.8813 7.88125C13.4688 7.29375 14.175 7 15 7H21C21.825 7 22.5312 7.29375 23.1188 7.88125C23.7063 8.46875 24 9.175 24 10V13H30C30.825 13 31.5313 13.2937 32.1188 13.8812C32.7063 14.4688 33 15.175 33 16V32.5C33 33.325 32.7063 34.0312 32.1188 34.6187C31.5313 35.2063 30.825 35.5 30 35.5H6ZM6 32.5H30V16H6V32.5ZM15 13H21V10H15V13Z" fill="#2ECC75"/>
</svg>
