<svg width="36" height="44" viewBox="0 0 36 44" fill="none" xmlns="http://www.w3.org/2000/svg">
<path d="M16.5 33.2125L9 28.9C8.525 28.625 8.15625 28.2625 7.89375 27.8125C7.63125 27.3625 7.5 26.8625 7.5 26.3125V17.6875C7.5 17.1375 7.63125 16.6375 7.89375 16.1875C8.15625 15.7375 8.525 15.375 9 15.1L16.5 10.7875C16.975 10.5125 17.475 10.375 18 10.375C18.525 10.375 19.025 10.5125 19.5 10.7875L27 15.1C27.475 15.375 27.8438 15.7375 28.1063 16.1875C28.3688 16.6375 28.5 17.1375 28.5 17.6875V26.3125C28.5 26.8625 28.3688 27.3625 28.1063 27.8125C27.8438 28.2625 27.475 28.625 27 28.9L19.5 33.2125C19.025 33.4875 18.525 33.625 18 33.625C17.475 33.625 16.975 33.4875 16.5 33.2125ZM16.5 29.7625V22.8625L10.5 19.375V26.3125L16.5 29.7625ZM19.5 29.7625L25.5 26.3125V19.375L19.5 22.8625V29.7625ZM3 14.5V10C3 9.175 3.29375 8.46875 3.88125 7.88125C4.46875 7.29375 5.175 7 6 7H10.5V10H6V14.5H3ZM10.5 37H6C5.175 37 4.46875 36.7063 3.88125 36.1187C3.29375 35.5312 3 34.825 3 34V29.5H6V34H10.5V37ZM25.5 37V34H30V29.5H33V34C33 34.825 32.7063 35.5312 32.1188 36.1187C31.5313 36.7063 30.825 37 30 37H25.5ZM30 14.5V10H25.5V7H30C30.825 7 31.5313 7.29375 32.1188 7.88125C32.7063 8.46875 33 9.175 33 10V14.5H30ZM18 20.275L23.925 16.7875L18 13.375L12.075 16.7875L18 20.275Z" fill="#2ECC75"/>
</svg>
