<svg width="36" height="44" viewBox="0 0 36 44" fill="none" xmlns="http://www.w3.org/2000/svg">
<path d="M20.25 37C17.55 37 15.25 36.05 13.35 34.15C11.45 32.25 10.5 29.95 10.5 27.25V26.3875C8.35 26.0375 6.5625 25.0312 5.1375 23.3687C3.7125 21.7062 3 19.75 3 17.5V8.5H7.5V7H10.5V13H7.5V11.5H6V17.5C6 19.15 6.5875 20.5625 7.7625 21.7375C8.9375 22.9125 10.35 23.5 12 23.5C13.65 23.5 15.0625 22.9125 16.2375 21.7375C17.4125 20.5625 18 19.15 18 17.5V11.5H16.5V13H13.5V7H16.5V8.5H21V17.5C21 19.75 20.2875 21.7062 18.8625 23.3687C17.4375 25.0312 15.65 26.0375 13.5 26.3875V27.25C13.5 29.125 14.1562 30.7187 15.4688 32.0312C16.7813 33.3437 18.375 34 20.25 34C22.125 34 23.7188 33.3437 25.0312 32.0312C26.3438 30.7187 27 29.125 27 27.25V24.7375C26.125 24.4375 25.4062 23.9 24.8438 23.125C24.2812 22.35 24 21.475 24 20.5C24 19.25 24.4375 18.1875 25.3125 17.3125C26.1875 16.4375 27.25 16 28.5 16C29.75 16 30.8125 16.4375 31.6875 17.3125C32.5625 18.1875 33 19.25 33 20.5C33 21.475 32.7188 22.35 32.1563 23.125C31.5938 23.9 30.875 24.4375 30 24.7375V27.25C30 29.95 29.05 32.25 27.15 34.15C25.25 36.05 22.95 37 20.25 37ZM28.5 22C28.925 22 29.2813 21.8562 29.5688 21.5687C29.8563 21.2812 30 20.925 30 20.5C30 20.075 29.8563 19.7188 29.5688 19.4312C29.2813 19.1437 28.925 19 28.5 19C28.075 19 27.7188 19.1437 27.4313 19.4312C27.1438 19.7188 27 20.075 27 20.5C27 20.925 27.1438 21.2812 27.4313 21.5687C27.7188 21.8562 28.075 22 28.5 22Z" fill="#2ECC75"/>
</svg>
