<svg width="36" height="44" viewBox="0 0 36 44" fill="none" xmlns="http://www.w3.org/2000/svg">
<path d="M18 31C18.65 31 19.1875 30.7875 19.6125 30.3625C20.0375 29.9375 20.25 29.4 20.25 28.75C20.25 28.1 20.0375 27.5625 19.6125 27.1375C19.1875 26.7125 18.65 26.5 18 26.5C17.35 26.5 16.8125 26.7125 16.3875 27.1375C15.9625 27.5625 15.75 28.1 15.75 28.75C15.75 29.4 15.9625 29.9375 16.3875 30.3625C16.8125 30.7875 17.35 31 18 31ZM18 24.25C18.65 24.25 19.1875 24.0375 19.6125 23.6125C20.0375 23.1875 20.25 22.65 20.25 22C20.25 21.35 20.0375 20.8125 19.6125 20.3875C19.1875 19.9625 18.65 19.75 18 19.75C17.35 19.75 16.8125 19.9625 16.3875 20.3875C15.9625 20.8125 15.75 21.35 15.75 22C15.75 22.65 15.9625 23.1875 16.3875 23.6125C16.8125 24.0375 17.35 24.25 18 24.25ZM18 17.5C18.65 17.5 19.1875 17.2875 19.6125 16.8625C20.0375 16.4375 20.25 15.9 20.25 15.25C20.25 14.6 20.0375 14.0625 19.6125 13.6375C19.1875 13.2125 18.65 13 18 13C17.35 13 16.8125 13.2125 16.3875 13.6375C15.9625 14.0625 15.75 14.6 15.75 15.25C15.75 15.9 15.9625 16.4375 16.3875 16.8625C16.8125 17.2875 17.35 17.5 18 17.5ZM10.5 26.5V24.775C9.225 24.425 8.15625 23.725 7.29375 22.675C6.43125 21.625 6 20.4 6 19H10.5V17.275C9.225 16.925 8.15625 16.225 7.29375 15.175C6.43125 14.125 6 12.9 6 11.5H10.5C10.5 10.675 10.7938 9.96875 11.3813 9.38125C11.9688 8.79375 12.675 8.5 13.5 8.5H22.5C23.325 8.5 24.0312 8.79375 24.6188 9.38125C25.2063 9.96875 25.5 10.675 25.5 11.5H30C30 12.9 29.5688 14.125 28.7063 15.175C27.8438 16.225 26.775 16.925 25.5 17.275V19H30C30 20.4 29.5688 21.625 28.7063 22.675C27.8438 23.725 26.775 24.425 25.5 24.775V26.5H30C30 27.9 29.5688 29.125 28.7063 30.175C27.8438 31.225 26.775 31.925 25.5 32.275V32.5C25.5 33.325 25.2063 34.0312 24.6188 34.6187C24.0312 35.2063 23.325 35.5 22.5 35.5H13.5C12.675 35.5 11.9688 35.2063 11.3813 34.6187C10.7938 34.0312 10.5 33.325 10.5 32.5V32.275C9.225 31.925 8.15625 31.225 7.29375 30.175C6.43125 29.125 6 27.9 6 26.5H10.5ZM13.5 32.5H22.5V11.5H13.5V32.5Z" fill="#2ECC75"/>
</svg>
