<svg width="20" height="22" viewBox="0 0 20 22" fill="none" xmlns="http://www.w3.org/2000/svg">
<path d="M18.4168 6.52593L11.9168 0.827593C11.3209 0.294642 10.5495 0 9.7501 0C8.95068 0 8.17929 0.294642 7.58344 0.827593L1.08344 6.52593C0.739335 6.83367 0.464744 7.2112 0.277947 7.63336C0.0911501 8.05552 -0.00356694 8.51263 0.000102694 8.97426V18.4426C0.000102694 19.3045 0.342513 20.1312 0.952006 20.7407C1.5615 21.3502 2.38815 21.6926 3.2501 21.6926H16.2501C17.1121 21.6926 17.9387 21.3502 18.5482 20.7407C19.1577 20.1312 19.5001 19.3045 19.5001 18.4426V8.96343C19.5022 8.50362 19.4068 8.0486 19.22 7.62841C19.0333 7.20823 18.7595 6.83246 18.4168 6.52593V6.52593ZM11.9168 19.5259H7.58344V14.1093C7.58344 13.8219 7.69757 13.5464 7.90074 13.3432C8.1039 13.1401 8.37945 13.0259 8.66677 13.0259H10.8334C11.1208 13.0259 11.3963 13.1401 11.5995 13.3432C11.8026 13.5464 11.9168 13.8219 11.9168 14.1093V19.5259ZM17.3334 18.4426C17.3334 18.7299 17.2193 19.0055 17.0161 19.2086C16.813 19.4118 16.5374 19.5259 16.2501 19.5259H14.0834V14.1093C14.0834 13.2473 13.741 12.4207 13.1315 11.8112C12.522 11.2017 11.6954 10.8593 10.8334 10.8593H8.66677C7.80482 10.8593 6.97817 11.2017 6.36867 11.8112C5.75918 12.4207 5.41677 13.2473 5.41677 14.1093V19.5259H3.2501C2.96279 19.5259 2.68724 19.4118 2.48407 19.2086C2.28091 19.0055 2.16677 18.7299 2.16677 18.4426V8.96343C2.16696 8.80961 2.19991 8.6576 2.26342 8.5175C2.32693 8.37741 2.41955 8.25245 2.5351 8.15093L9.0351 2.46343C9.2328 2.28975 9.48695 2.19396 9.7501 2.19396C10.0133 2.19396 10.2674 2.28975 10.4651 2.46343L16.9651 8.15093C17.0807 8.25245 17.1733 8.37741 17.2368 8.5175C17.3003 8.6576 17.3332 8.80961 17.3334 8.96343V18.4426Z" fill="#999999"/>
</svg>
