<svg width="31" height="31" viewBox="0 0 31 31" fill="none" xmlns="http://www.w3.org/2000/svg">
<path d="M27.7569 13.0519H26.75V13H15.5V18H22.5644C21.5338 20.9106 18.7644 23 15.5 23C11.3581 23 8 19.6419 8 15.5C8 11.3581 11.3581 8 15.5 8C17.4119 8 19.1513 8.72125 20.4756 9.89937L24.0112 6.36375C21.7787 4.28312 18.7925 3 15.5 3C8.59688 3 3 8.59688 3 15.5C3 22.4031 8.59688 28 15.5 28C22.4031 28 28 22.4031 28 15.5C28 14.6619 27.9137 13.8438 27.7569 13.0519Z" fill="#FFC107"/>
<path d="M4.07275 9.48792L8.31652 12.6002C9.46482 9.75723 12.2458 7.74998 15.5001 7.74998C17.4757 7.74998 19.2731 8.49527 20.6416 9.71267L24.2951 6.05919C21.9882 3.90921 18.9024 2.58331 15.5001 2.58331C10.5388 2.58331 6.2363 5.38429 4.07275 9.48792Z" fill="#FF3D00"/>
<path d="M15.5 28.4167C18.8364 28.4167 21.868 27.1399 24.16 25.0635L20.1623 21.6806C18.8655 22.663 17.2535 23.25 15.5 23.25C12.1404 23.25 9.28777 21.1078 8.2131 18.1182L4.00098 21.3635C6.13868 25.5466 10.48 28.4167 15.5 28.4167Z" fill="#4CAF50"/>
<path d="M28.1654 12.9703H27.125V12.9167H15.5V18.0834H22.7999C22.2884 19.5281 21.359 20.7739 20.1603 21.6813L20.1623 21.68L24.16 25.0629C23.8771 25.3199 28.4167 21.9584 28.4167 15.5C28.4167 14.634 28.3275 13.7886 28.1654 12.9703Z" fill="#1976D2"/>
</svg>
