<svg width="26" height="26" viewBox="0 0 26 26" fill="none" xmlns="http://www.w3.org/2000/svg">
<path d="M17.019 13.7692C18.0811 12.9336 18.8564 11.7877 19.2369 10.491C19.6174 9.19426 19.5843 7.81117 19.1421 6.53414C18.7 5.25711 17.8708 4.14965 16.77 3.36581C15.6691 2.58198 14.3513 2.16077 12.9999 2.16077C11.6485 2.16077 10.3307 2.58198 9.2298 3.36581C8.12893 4.14965 7.29975 5.25711 6.8576 6.53414C6.41546 7.81117 6.38235 9.19426 6.76287 10.491C7.14338 11.7877 7.91862 12.9336 8.98071 13.7692C7.16079 14.4983 5.57285 15.7077 4.38617 17.2683C3.1995 18.8289 2.45857 20.6823 2.24237 22.6309C2.22673 22.7732 2.23925 22.9171 2.27924 23.0545C2.31922 23.192 2.38588 23.3202 2.47541 23.4318C2.65623 23.6573 2.91922 23.8018 3.20654 23.8334C3.49386 23.865 3.78196 23.7812 4.00748 23.6003C4.23299 23.4195 4.37744 23.1565 4.40904 22.8692C4.64692 20.7515 5.6567 18.7957 7.24545 17.3754C8.83419 15.9551 10.8905 15.17 13.0215 15.17C15.1526 15.17 17.2089 15.9551 18.7976 17.3754C20.3864 18.7957 21.3962 20.7515 21.634 22.8692C21.6635 23.1354 21.7905 23.3813 21.9906 23.5593C22.1906 23.7374 22.4496 23.835 22.7174 23.8334H22.8365C23.1205 23.8007 23.3801 23.6571 23.5586 23.4339C23.7372 23.2107 23.8203 22.9259 23.7899 22.6417C23.5727 20.6876 22.8277 18.8295 21.635 17.2664C20.4422 15.7034 18.8465 14.4945 17.019 13.7692ZM12.9999 13.0001C12.1428 13.0001 11.305 12.7459 10.5924 12.2698C9.87979 11.7936 9.32438 11.1168 8.9964 10.325C8.66842 9.5332 8.5826 8.66191 8.7498 7.82133C8.91701 6.98075 9.32972 6.20862 9.93575 5.60259C10.5418 4.99656 11.3139 4.58385 12.1545 4.41665C12.9951 4.24945 13.8664 4.33526 14.6582 4.66324C15.45 4.99122 16.1268 5.54664 16.6029 6.25925C17.0791 6.97186 17.3332 7.80967 17.3332 8.66672C17.3332 9.81599 16.8767 10.9182 16.064 11.7309C15.2513 12.5435 14.1491 13.0001 12.9999 13.0001Z" fill="#999999"/>
</svg>
