<svg width="26" height="26" viewBox="0 0 26 26" fill="none" xmlns="http://www.w3.org/2000/svg">
<path d="M21.7498 15.1666H16.1665C15.6142 15.1666 15.1665 15.6143 15.1665 16.1666V21.75C15.1665 22.3022 15.6142 22.75 16.1665 22.75H21.7498C22.3021 22.75 22.7498 22.3022 22.7498 21.75V16.1666C22.7498 15.6143 22.3021 15.1666 21.7498 15.1666Z" stroke="#999999" stroke-width="2" stroke-linecap="round" stroke-linejoin="round"/>
<path d="M9.83333 15.1666H4.25C3.69772 15.1666 3.25 15.6143 3.25 16.1666V21.75C3.25 22.3022 3.69772 22.75 4.25 22.75H9.83333C10.3856 22.75 10.8333 22.3022 10.8333 21.75V16.1666C10.8333 15.6143 10.3856 15.1666 9.83333 15.1666Z" stroke="#999999" stroke-width="2" stroke-linecap="round" stroke-linejoin="round"/>
<path d="M21.7498 3.25H16.1665C15.6142 3.25 15.1665 3.69772 15.1665 4.25V9.83333C15.1665 10.3856 15.6142 10.8333 16.1665 10.8333H21.7498C22.3021 10.8333 22.7498 10.3856 22.7498 9.83333V4.25C22.7498 3.69772 22.3021 3.25 21.7498 3.25Z" stroke="#999999" stroke-width="2" stroke-linecap="round" stroke-linejoin="round"/>
<path d="M9.83333 3.25H4.25C3.69772 3.25 3.25 3.69772 3.25 4.25V9.83333C3.25 10.3856 3.69772 10.8333 4.25 10.8333H9.83333C10.3856 10.8333 10.8333 10.3856 10.8333 9.83333V4.25C10.8333 3.69772 10.3856 3.25 9.83333 3.25Z" stroke="#999999" stroke-width="2" stroke-linecap="round" stroke-linejoin="round"/>
</svg>
